<svg width="22" height="22" viewBox="0 0 22 22" fill="none" xmlns="http://www.w3.org/2000/svg">
<g clip-path="url(#clip0_692_946)">
<path d="M6.14256 13.3063C5.43531 12.0813 5.24366 10.6256 5.60975 9.25927C5.97585 7.89298 6.86971 6.72808 8.09469 6.02083C9.31967 5.31359 10.7754 5.12193 12.1417 5.48803C13.508 5.85413 14.6729 6.74799 15.3802 7.97297L17.5468 11.7257C17.6794 11.9554 17.8979 12.123 18.154 12.1917C18.4102 12.2603 18.6832 12.2244 18.9129 12.0918L7.9432 18.4251C8.17288 18.2925 8.34048 18.0741 8.40912 17.8179C8.47777 17.5617 8.44183 17.2888 8.30922 17.0591L6.14256 13.3063Z" stroke="#126A3A" stroke-linecap="round" stroke-linejoin="round"/>
<path d="M7.09521 4.28906L8.09521 6.02111" stroke="#126A3A" stroke-linecap="round" stroke-linejoin="round"/>
<path d="M15.5092 15.5962C15.6313 15.9607 15.6237 16.3562 15.4875 16.7158C15.3514 17.0753 15.0951 17.3767 14.7622 17.569C14.4292 17.7612 14.0401 17.8324 13.6606 17.7705C13.2812 17.7087 12.9348 17.5175 12.6802 17.2295" stroke="#126A3A" stroke-linecap="round" stroke-linejoin="round"/>
<path d="M10.6943 7.19043C11.2519 7.15523 11.8083 7.27643 12.3007 7.54039C12.7931 7.80434 13.202 8.20056 13.4814 8.6844" stroke="#126A3A" stroke-linecap="round" stroke-linejoin="round"/>
</g>
<defs>
<clipPath id="clip0_692_946">
<rect width="16" height="16" fill="white" transform="translate(0 8) rotate(-30)"/>
</clipPath>
</defs>
</svg>
