<svg width="80" height="80" viewBox="0 0 80 80" fill="none" xmlns="http://www.w3.org/2000/svg">
<g clip-path="url(#clip0_372_8083)">
<path d="M28.3333 43.333C28.1685 43.333 28.0074 43.3819 27.8704 43.4734C27.7333 43.565 27.6265 43.6952 27.5634 43.8474C27.5004 43.9997 27.4839 44.1673 27.516 44.3289C27.5482 44.4906 27.6275 44.6391 27.7441 44.7556C27.8606 44.8721 28.0091 44.9515 28.1708 44.9837C28.3324 45.0158 28.5 44.9993 28.6522 44.9362C28.8045 44.8732 28.9347 44.7664 29.0262 44.6293C29.1178 44.4923 29.1667 44.3312 29.1667 44.1663C29.1667 43.9453 29.0789 43.7334 28.9226 43.5771C28.7663 43.4208 28.5543 43.333 28.3333 43.333Z" stroke="#126A3A" stroke-width="2.5" stroke-linecap="round" stroke-linejoin="round"/>
<path d="M40.0003 43.333C39.8355 43.333 39.6744 43.3819 39.5374 43.4734C39.4003 43.565 39.2935 43.6952 39.2304 43.8474C39.1674 43.9997 39.1509 44.1673 39.183 44.3289C39.2152 44.4906 39.2945 44.6391 39.4111 44.7556C39.5276 44.8721 39.6761 44.9515 39.8378 44.9837C39.9994 45.0158 40.167 44.9993 40.3192 44.9362C40.4715 44.8732 40.6017 44.7664 40.6932 44.6293C40.7848 44.4923 40.8337 44.3312 40.8337 44.1663C40.8337 43.9453 40.7459 43.7334 40.5896 43.5771C40.4333 43.4208 40.2213 43.333 40.0003 43.333Z" stroke="#126A3A" stroke-width="2.5" stroke-linecap="round" stroke-linejoin="round"/>
<path d="M51.6663 43.333C51.5015 43.333 51.3404 43.3819 51.2034 43.4734C51.0663 43.565 50.9595 43.6952 50.8964 43.8474C50.8334 43.9997 50.8169 44.1673 50.849 44.3289C50.8812 44.4906 50.9605 44.6391 51.0771 44.7556C51.1936 44.8721 51.3421 44.9515 51.5038 44.9837C51.6654 45.0158 51.833 44.9993 51.9852 44.9362C52.1375 44.8732 52.2677 44.7664 52.3592 44.6293C52.4508 44.4923 52.4997 44.3312 52.4997 44.1663C52.4997 43.9453 52.4119 43.7334 52.2556 43.5771C52.0993 43.4208 51.8874 43.333 51.6663 43.333Z" stroke="#126A3A" stroke-width="2.5" stroke-linecap="round" stroke-linejoin="round"/>
<path d="M28.3333 55C28.1685 55 28.0074 55.0489 27.8704 55.1404C27.7333 55.232 27.6265 55.3622 27.5634 55.5144C27.5004 55.6667 27.4839 55.8343 27.516 55.9959C27.5482 56.1576 27.6275 56.306 27.7441 56.4226C27.8606 56.5391 28.0091 56.6185 28.1708 56.6507C28.3324 56.6828 28.5 56.6663 28.6522 56.6032C28.8045 56.5402 28.9347 56.4334 29.0262 56.2963C29.1178 56.1593 29.1667 55.9982 29.1667 55.8333C29.1667 55.6123 29.0789 55.4004 28.9226 55.2441C28.7663 55.0878 28.5543 55 28.3333 55Z" stroke="#126A3A" stroke-width="2.5" stroke-linecap="round" stroke-linejoin="round"/>
<path d="M40.0003 55C39.8355 55 39.6744 55.0489 39.5374 55.1404C39.4003 55.232 39.2935 55.3622 39.2304 55.5144C39.1674 55.6667 39.1509 55.8343 39.183 55.9959C39.2152 56.1576 39.2945 56.306 39.4111 56.4226C39.5276 56.5391 39.6761 56.6185 39.8378 56.6507C39.9994 56.6828 40.167 56.6663 40.3192 56.6032C40.4715 56.5402 40.6017 56.4334 40.6932 56.2963C40.7848 56.1593 40.8337 55.9982 40.8337 55.8333C40.8337 55.6123 40.7459 55.4004 40.5896 55.2441C40.4333 55.0878 40.2213 55 40.0003 55Z" stroke="#126A3A" stroke-width="2.5" stroke-linecap="round" stroke-linejoin="round"/>
<path d="M51.6663 55C51.5015 55 51.3404 55.0489 51.2034 55.1404C51.0663 55.232 50.9595 55.3622 50.8964 55.5144C50.8334 55.6667 50.8169 55.8343 50.849 55.9959C50.8812 56.1576 50.9605 56.306 51.0771 56.4226C51.1936 56.5391 51.3421 56.6185 51.5038 56.6507C51.6654 56.6828 51.833 56.6663 51.9852 56.6032C52.1375 56.5402 52.2677 56.4334 52.3592 56.2963C52.4508 56.1593 52.4997 55.9982 52.4997 55.8333C52.4997 55.6123 52.4119 55.4004 52.2556 55.2441C52.0993 55.0878 51.8874 55 51.6663 55Z" stroke="#126A3A" stroke-width="2.5" stroke-linecap="round" stroke-linejoin="round"/>
<path d="M28.3333 66.667C28.1685 66.667 28.0074 66.7159 27.8704 66.8074C27.7333 66.899 27.6265 67.0292 27.5634 67.1814C27.5004 67.3337 27.4839 67.5013 27.516 67.6629C27.5482 67.8246 27.6275 67.973 27.7441 68.0896C27.8606 68.2061 28.0091 68.2855 28.1708 68.3176C28.3324 68.3498 28.5 68.3333 28.6522 68.2702C28.8045 68.2072 28.9347 68.1003 29.0262 67.9633C29.1178 67.8263 29.1667 67.6651 29.1667 67.5003C29.1667 67.2793 29.0789 67.0673 28.9226 66.9111C28.7663 66.7548 28.5543 66.667 28.3333 66.667Z" stroke="#126A3A" stroke-width="2.5" stroke-linecap="round" stroke-linejoin="round"/>
<path d="M40.0003 66.667C39.8355 66.667 39.6744 66.7159 39.5374 66.8074C39.4003 66.899 39.2935 67.0292 39.2304 67.1814C39.1674 67.3337 39.1509 67.5013 39.183 67.6629C39.2152 67.8246 39.2945 67.973 39.4111 68.0896C39.5276 68.2061 39.6761 68.2855 39.8378 68.3176C39.9994 68.3498 40.167 68.3333 40.3192 68.2702C40.4715 68.2072 40.6017 68.1003 40.6932 67.9633C40.7848 67.8263 40.8337 67.6651 40.8337 67.5003C40.8337 67.2793 40.7459 67.0673 40.5896 66.9111C40.4333 66.7548 40.2213 66.667 40.0003 66.667Z" stroke="#126A3A" stroke-width="2.5" stroke-linecap="round" stroke-linejoin="round"/>
<path d="M51.6663 66.667C51.5015 66.667 51.3404 66.7159 51.2034 66.8074C51.0663 66.899 50.9595 67.0292 50.8964 67.1814C50.8334 67.3337 50.8169 67.5013 50.849 67.6629C50.8812 67.8246 50.9605 67.973 51.0771 68.0896C51.1936 68.2061 51.3421 68.2855 51.5038 68.3176C51.6654 68.3498 51.833 68.3333 51.9852 68.2702C52.1375 68.2072 52.2677 68.1003 52.3592 67.9633C52.4508 67.8263 52.4997 67.6651 52.4997 67.5003C52.4997 67.2793 52.4119 67.0673 52.2556 66.9111C52.0993 66.7548 51.8874 66.667 51.6663 66.667Z" stroke="#126A3A" stroke-width="2.5" stroke-linecap="round" stroke-linejoin="round"/>
<path d="M68.3337 35.0003C68.3337 34.1163 67.9825 33.2684 67.3574 32.6433C66.7322 32.0182 65.8844 31.667 65.0003 31.667H15.0003C14.1163 31.667 13.2684 32.0182 12.6433 32.6433C12.0182 33.2684 11.667 34.1163 11.667 35.0003V75.0003C11.667 75.8844 12.0182 76.7322 12.6433 77.3574C13.2684 77.9825 14.1163 78.3337 15.0003 78.3337H65.0003C65.8844 78.3337 66.7322 77.9825 67.3574 77.3574C67.9825 76.7322 68.3337 75.8844 68.3337 75.0003V35.0003Z" stroke="#126A3A" stroke-width="2" stroke-linecap="round" stroke-linejoin="round"/>
<path d="M21.667 20.0003C21.667 15.138 23.5985 10.4749 27.0367 7.0367C30.4749 3.59853 35.138 1.66699 40.0003 1.66699C44.8626 1.66699 49.5258 3.59853 52.964 7.0367C56.4021 10.4749 58.3337 15.138 58.3337 20.0003V31.667H21.667V20.0003Z" stroke="#126A3A" stroke-width="2" stroke-linecap="round" stroke-linejoin="round"/>
</g>
<defs>
<clipPath id="clip0_372_8083">
<rect width="80" height="80" fill="white"/>
</clipPath>
</defs>
</svg>
