<svg width="104" height="109" viewBox="0 0 104 109" fill="none" xmlns="http://www.w3.org/2000/svg">
<path d="M103.199 20.2058C102.571 17.7706 101.004 15.683 98.842 14.399C96.6796 13.1151 94.0969 12.7392 91.6582 13.3536L82.8469 15.7146C82.6902 15.7573 82.5267 15.7686 82.3656 15.7479C82.2046 15.7271 82.0492 15.6748 81.9084 15.5939C81.7676 15.513 81.6442 15.4051 81.5452 15.2764C81.4462 15.1476 81.3736 15.0006 81.3316 14.8438L80.3739 11.2697C79.358 7.47807 76.8774 4.24534 73.4779 2.28266C70.0785 0.319975 66.0385 -0.211888 62.2469 0.804072L47.9506 4.63475C44.159 5.65071 40.9263 8.13128 38.9636 11.5307C37.0009 14.9302 36.4691 18.9701 37.485 22.7617L38.4427 26.3358C38.5273 26.6518 38.483 26.9884 38.3195 27.2717C38.1559 27.555 37.8865 27.7617 37.5705 27.8464L28.0397 30.4002C27.7237 30.4848 27.3871 30.4405 27.1038 30.277C26.8205 30.1134 26.6138 29.844 26.5291 29.528L25.5714 25.954C25.2328 24.6901 25.4101 23.3435 26.0643 22.2103C26.7185 21.0771 27.7961 20.2503 29.06 19.9116C30.3238 19.573 31.4014 18.7461 32.0556 17.613C32.7099 16.4798 32.8872 15.1332 32.5485 13.8693C32.2099 12.6054 31.383 11.5279 30.2498 10.8736C29.1167 10.2194 27.7701 10.0421 26.5062 10.3808C22.7146 11.3967 19.4818 13.8773 17.5192 17.2768C15.5565 20.6762 15.0246 24.7161 16.0406 28.5078L16.9982 32.0818C17.0829 32.3978 17.0386 32.7345 16.875 33.0177C16.7115 33.301 16.4421 33.5078 16.1261 33.5924L7.78659 35.827C5.29382 36.4011 3.12141 37.9208 1.72751 40.0656C0.333603 42.2105 -0.17285 44.8129 0.314953 47.324L14.1593 126.326C14.9229 128.842 16.6524 130.953 18.9691 132.196C21.2859 133.439 24.0009 133.714 26.5194 132.959L121.962 107.385C123.181 107.032 124.318 106.439 125.307 105.642C126.295 104.844 127.115 103.858 127.719 102.741C128.322 101.624 128.698 100.398 128.823 99.1345C128.949 97.8708 128.822 96.5948 128.449 95.3808L103.199 20.2058ZM47.0159 20.2079C46.6772 18.9441 46.8545 17.5974 47.5087 16.4643C48.163 15.3311 49.2405 14.5043 50.5044 14.1656L64.8007 10.3349C66.0646 9.99628 67.4112 10.1736 68.5444 10.8278C69.6775 11.482 70.5044 12.5596 70.843 13.8235L71.8007 17.3976C71.8854 17.7135 71.8411 18.0502 71.6775 18.3335C71.5139 18.6168 71.2445 18.8235 70.9286 18.9081L49.4841 24.6542C49.1682 24.7388 48.8315 24.6945 48.5482 24.5309C48.2649 24.3674 48.0582 24.098 47.9735 23.782L47.0159 20.2079ZM26.2545 122.687C25.9222 122.778 25.5746 122.798 25.2341 122.746C24.8937 122.694 24.5678 122.572 24.2775 122.386C23.9873 122.201 23.7391 121.957 23.5489 121.669C23.3587 121.382 23.2308 121.059 23.1733 120.719L10.7247 47.5737C10.6209 46.9675 10.7472 46.3444 11.079 45.8265C11.4108 45.3086 11.9241 44.9333 12.5182 44.7743L25.0274 41.4225C25.6367 41.2582 26.2857 41.3336 26.841 41.6333C27.3963 41.9329 27.8157 42.4339 28.0129 43.0333L51.1282 113.423C51.2332 113.742 51.2719 114.079 51.2419 114.413C51.212 114.748 51.114 115.073 50.9541 115.368C50.7941 115.664 50.5755 115.923 50.3116 116.131C50.0478 116.339 49.7443 116.491 49.4197 116.577L26.2545 122.687Z" fill="#4DCCBD"/>
</svg>
