<svg width="17" height="16" viewBox="0 0 17 16" fill="none" xmlns="http://www.w3.org/2000/svg">
<path d="M14.5 3H13.5V14.5C13.5 14.7083 13.4609 14.9036 13.3828 15.0859C13.3047 15.2682 13.1979 15.4271 13.0625 15.5625C12.9271 15.6979 12.7682 15.8047 12.5859 15.8828C12.4036 15.9609 12.2083 16 12 16H4C3.79167 16 3.59635 15.9609 3.41406 15.8828C3.23177 15.8047 3.07292 15.6979 2.9375 15.5625C2.80208 15.4271 2.69531 15.2682 2.61719 15.0859C2.53906 14.9036 2.5 14.7083 2.5 14.5V3H1.5V2H5.5V1C5.5 0.859375 5.52604 0.729167 5.57812 0.609375C5.63021 0.489583 5.70182 0.384115 5.79297 0.292969C5.88411 0.201823 5.98958 0.130208 6.10938 0.078125C6.22917 0.0260417 6.35938 0 6.5 0H9.5C9.64062 0 9.77083 0.0260417 9.89062 0.078125C10.0104 0.130208 10.1159 0.201823 10.207 0.292969C10.2982 0.384115 10.3698 0.489583 10.4219 0.609375C10.474 0.729167 10.5 0.859375 10.5 1V2H14.5V3ZM6.5 2H9.5V1H6.5V2ZM12.5 3H3.5V14.5C3.5 14.6354 3.54948 14.7526 3.64844 14.8516C3.7474 14.9505 3.86458 15 4 15H12C12.1354 15 12.2526 14.9505 12.3516 14.8516C12.4505 14.7526 12.5 14.6354 12.5 14.5V3ZM6.5 13H5.5V5H6.5V13ZM8.5 13H7.5V5H8.5V13ZM10.5 13H9.5V5H10.5V13Z" fill="#DA1414"/>
</svg>
