<svg width="122" height="134" viewBox="0 0 122 134" fill="none" xmlns="http://www.w3.org/2000/svg">
<g clip-path="url(#clip0_360_5366)">
<path d="M66.9215 33.1565C68.3077 32.7851 69.4896 31.8782 70.2071 30.6353C70.9247 29.3925 71.1191 27.9155 70.7477 26.5293L69.3472 21.3027C68.9758 19.9165 68.0689 18.7346 66.8261 18.017C65.5833 17.2995 64.1063 17.105 62.7201 17.4765C61.3339 17.8479 60.152 18.7548 59.4345 19.9976C58.7169 21.2404 58.5225 22.7174 58.8939 24.1036L60.2944 29.3303C60.6658 30.7165 61.5727 31.8984 62.8155 32.6159C64.0584 33.3335 65.5353 33.5279 66.9215 33.1565Z" fill="#88B49C"/>
<path d="M37.3595 52.1579C38.6024 52.876 40.0796 53.071 41.4662 52.7C42.8528 52.329 44.0352 51.4223 44.7534 50.1795C45.4715 48.9367 45.6665 47.4595 45.2955 46.0729C44.9245 44.6863 44.0178 43.5038 42.775 42.7857L38.0777 40.0781C36.8369 39.3902 35.3754 39.2171 34.0082 39.5963C32.641 39.9754 31.4774 40.8763 30.768 42.105C30.0585 43.3338 29.8601 44.792 30.2154 46.1656C30.5707 47.5392 31.4513 48.7183 32.6675 49.4489L37.3595 52.1579Z" fill="#88B49C"/>
<path d="M32.0418 85.9171L37.2685 84.5166C38.6547 84.1452 39.8365 83.2383 40.5541 81.9955C41.2716 80.7527 41.4661 79.2757 41.0947 77.8895C40.7232 76.5033 39.8163 75.3214 38.5735 74.6039C37.3307 73.8863 35.8537 73.6919 34.4675 74.0633L29.2408 75.4638C27.8546 75.8352 26.6728 76.7421 25.9552 77.9849C25.2377 79.2278 25.0432 80.7047 25.4146 82.0909C25.7861 83.4771 26.693 84.659 27.9358 85.3765C29.1786 86.0941 30.6556 86.2885 32.0418 85.9171Z" fill="#88B49C"/>
<path d="M102.024 34.8316L104.733 30.1396C105.421 28.8987 105.594 27.4373 105.215 26.0701C104.836 24.7028 103.935 23.5392 102.706 22.8298C101.477 22.1204 100.019 21.922 98.6455 22.2773C97.2719 22.6326 96.0927 23.5131 95.3621 24.7294L92.6479 29.4228C91.9307 30.6661 91.7367 32.1435 92.1087 33.5298C92.4807 34.9162 93.3882 36.098 94.6315 36.8152C95.8749 37.5325 97.3522 37.7264 98.7386 37.3544C100.125 36.9824 101.307 36.075 102.024 34.8316Z" fill="#88B49C"/>
<path d="M111.644 58.9864C112.016 60.3726 112.923 61.5545 114.166 62.2721C115.408 62.9896 116.885 63.1841 118.272 62.8126L123.498 61.4121C124.884 61.0407 126.066 60.1338 126.784 58.891C127.501 57.6482 127.696 56.1712 127.324 54.785C126.953 53.3988 126.046 52.2169 124.803 51.4994C123.56 50.7818 122.083 50.5874 120.697 50.9588L115.471 52.3593C114.084 52.7307 112.903 53.6376 112.185 54.8804C111.467 56.1233 111.273 57.6002 111.644 58.9864Z" fill="#88B49C"/>
<path d="M49.569 84.2409C50.3056 85.461 51.4938 86.3412 52.8756 86.6903C54.2574 87.0395 55.7211 86.8294 56.9489 86.1057C58.1767 85.382 59.0694 84.2031 59.4331 82.8251C59.7968 81.4471 59.6022 79.9812 58.8915 78.7459C57.3056 76.0512 56.3639 73.0264 56.1399 69.9077C55.9159 66.789 56.4156 63.6607 57.6001 60.767C58.7846 57.8733 60.6218 55.2925 62.9683 53.226C65.3148 51.1595 68.1072 49.6632 71.1274 48.8539C74.1476 48.0447 77.3139 47.9443 80.3793 48.5607C83.4447 49.1771 86.3262 50.4936 88.7988 52.4073C91.2715 54.3211 93.2684 56.7804 94.6338 59.5933C95.9991 62.4062 96.696 65.4966 96.6699 68.6232C96.6721 70.0484 97.2365 71.4152 98.2405 72.4267C99.2445 73.4382 100.607 74.0128 102.032 74.0257C103.457 74.0385 104.83 73.4886 105.852 72.4953C106.874 71.5021 107.463 70.1457 107.491 68.7207C107.532 63.9258 106.465 59.1861 104.372 54.8718C102.279 50.5575 99.2174 46.7854 95.4258 43.8498C91.6342 40.9143 87.2155 38.8949 82.5145 37.9493C77.8135 37.0036 72.9576 37.1573 68.3258 38.3984C63.6941 39.6395 59.4118 41.9343 55.8135 45.1038C52.2152 48.2732 49.3981 52.2315 47.5822 56.6695C45.7664 61.1075 45.0009 65.9052 45.3455 70.6879C45.6902 75.4707 47.1356 80.109 49.569 84.2409Z" fill="#88B49C"/>
<path d="M47.53 99.3347C47.3239 99.1417 47.0621 99.0187 46.782 98.9831C46.5019 98.9475 46.2178 99.0012 45.9699 99.1365C38.5642 103.031 31.7103 107.895 25.589 113.6C24.5421 114.609 23.7855 115.881 23.3983 117.282C23.0111 118.684 23.0076 120.164 23.388 121.567L28.1385 139.296C28.2114 139.566 28.3659 139.806 28.5808 139.984C28.7957 140.162 29.0604 140.269 29.3386 140.291C29.6169 140.313 29.8951 140.248 30.135 140.106C30.375 139.963 30.565 139.75 30.679 139.495L47.8543 100.9C47.9762 100.639 48.0105 100.346 47.9521 100.064C47.8936 99.7815 47.7456 99.5258 47.53 99.3347Z" fill="#88B49C"/>
<path d="M84.2616 86.9161C83.962 86.3217 83.4667 85.8488 82.8592 85.577C82.2517 85.3051 81.5691 85.2508 80.9262 85.4234C80.284 85.5954 79.7207 85.9837 79.3314 86.5227C78.9421 87.0618 78.7507 87.7186 78.7893 88.3824L81.9699 143.404C81.9941 143.804 82.1071 144.194 82.3007 144.546C82.4943 144.897 82.7637 145.201 83.0893 145.436C83.4148 145.67 83.7885 145.829 84.1832 145.902C84.5779 145.974 84.9837 145.957 85.3712 145.854L107.308 139.976C107.695 139.872 108.055 139.683 108.36 139.423C108.666 139.163 108.91 138.839 109.075 138.473C109.24 138.107 109.321 137.709 109.313 137.308C109.305 136.907 109.208 136.512 109.028 136.153L84.2616 86.9161Z" fill="#88B49C"/>
<path d="M65.0824 90.4978C64.7903 90.605 64.5229 90.77 64.296 90.9828C64.0691 91.1957 63.8874 91.4521 63.7618 91.7367L35.7453 154.703C35.5442 155.158 35.4758 155.661 35.548 156.153C35.6202 156.645 35.83 157.107 36.1532 157.485C36.4765 157.864 36.9 158.143 37.375 158.291C37.8501 158.439 38.3572 158.45 38.8381 158.322L69.3567 150.145C69.9579 149.982 70.4848 149.618 70.8484 149.112C71.2119 148.606 71.3899 147.991 71.3523 147.369L68.1824 92.5129C68.1615 92.1534 68.0564 91.8038 67.8757 91.4923C67.6949 91.1809 67.4436 90.9162 67.1418 90.7196C66.8401 90.523 66.4964 90.4001 66.1384 90.3606C65.7805 90.3212 65.4183 90.3664 65.081 90.4925L65.0824 90.4978Z" fill="#88B49C"/>
<path d="M142.938 82.1564C134.785 80.2767 126.417 79.4914 118.056 79.8212C117.775 79.83 117.503 79.9265 117.279 80.0971C117.055 80.2677 116.89 80.504 116.806 80.7731C116.723 81.0421 116.726 81.3305 116.814 81.5979C116.902 81.8653 117.072 82.0984 117.299 82.2648L151.471 107.101C151.697 107.265 151.968 107.354 152.247 107.358C152.526 107.361 152.8 107.278 153.03 107.12C153.26 106.962 153.435 106.737 153.532 106.475C153.629 106.214 153.643 105.929 153.572 105.659L148.828 87.956C148.456 86.5503 147.713 85.2705 146.677 84.2503C145.641 83.23 144.35 82.5069 142.938 82.1564Z" fill="#88B49C"/>
<path d="M98.9479 82.3087C98.6966 82.1256 98.411 81.9947 98.1082 81.9238C97.8053 81.8529 97.4914 81.8435 97.1848 81.896C96.8296 81.9554 96.4933 82.0974 96.2031 82.3105C95.9128 82.5237 95.6766 82.802 95.5136 83.1231C95.3505 83.4442 95.2652 83.7991 95.2644 84.1592C95.2636 84.5193 95.3474 84.8746 95.5091 85.1964L120.191 134.283C120.469 134.84 120.931 135.284 121.498 135.54C122.066 135.797 122.705 135.849 123.307 135.689L153.825 127.511C154.312 127.385 154.753 127.122 155.096 126.753C155.439 126.384 155.669 125.925 155.759 125.43C155.85 124.935 155.797 124.424 155.606 123.958C155.416 123.492 155.097 123.09 154.686 122.799L98.9479 82.3087Z" fill="#88B49C"/>
<circle cx="71.4956" cy="79.3474" r="38.8436" transform="rotate(-15 71.4956 79.3474)" fill="#81BB48" fill-opacity="0.1"/>
</g>
<defs>
<clipPath id="clip0_360_5366">
<rect width="129.865" height="129.865" fill="white" transform="translate(0 34.2822) rotate(-15)"/>
</clipPath>
</defs>
</svg>
