<svg width="80" height="80" viewBox="0 0 80 80" fill="none" xmlns="http://www.w3.org/2000/svg">
<path d="M29.9994 25H17.2227C16.4927 25 15.7699 25.1438 15.0955 25.4233C14.4211 25.7028 13.8084 26.1124 13.2923 26.6287C12.7763 27.145 12.3671 27.758 12.088 28.4325C11.809 29.1071 11.6656 29.83 11.666 30.56V68.3333" stroke="#126A3A" stroke-width="2" stroke-linecap="round" stroke-linejoin="round"/>
<path d="M68.334 68.3395V46.6729" stroke="#126A3A" stroke-width="2" stroke-linecap="round" stroke-linejoin="round"/>
<path d="M78.3327 68.333C78.3327 70.9852 77.2791 73.5287 75.4038 75.4041C73.5284 77.2794 70.9849 78.333 68.3327 78.333H11.666C9.01385 78.333 6.47031 77.2794 4.59495 75.4041C2.71958 73.5287 1.66602 70.9852 1.66602 68.333H78.3327Z" stroke="#126A3A" stroke-width="2" stroke-linecap="round" stroke-linejoin="round"/>
<path d="M53.334 18.333C53.334 17.3441 53.6272 16.3774 54.1766 15.5552C54.726 14.7329 55.5069 14.0921 56.4206 13.7136C57.3342 13.3352 58.3395 13.2362 59.3094 13.4291C60.2793 13.622 61.1703 14.0982 61.8695 14.7975C62.5688 15.4967 63.045 16.3877 63.2379 17.3576C63.4308 18.3275 63.3318 19.3328 62.9534 20.2464C62.5749 21.1601 61.9341 21.9409 61.1118 22.4904C60.2896 23.0398 59.3229 23.333 58.334 23.333" stroke="#126A3A" stroke-width="2" stroke-linecap="round" stroke-linejoin="round"/>
<path d="M58.3333 28.333C58.4982 28.333 58.6593 28.3819 58.7963 28.4734C58.9334 28.565 59.0402 28.6952 59.1032 28.8474C59.1663 28.9997 59.1828 29.1673 59.1507 29.3289C59.1185 29.4906 59.0391 29.6391 58.9226 29.7556C58.806 29.8721 58.6576 29.9515 58.4959 29.9837C58.3343 30.0158 58.1667 29.9993 58.0144 29.9362C57.8622 29.8732 57.732 29.7664 57.6404 29.6293C57.5489 29.4923 57.5 29.3312 57.5 29.1663C57.5 28.9453 57.5878 28.7334 57.7441 28.5771C57.9004 28.4208 58.1123 28.333 58.3333 28.333Z" stroke="#126A3A" stroke-width="2" stroke-linecap="round" stroke-linejoin="round"/>
<path d="M58.11 1.66699C55.4776 1.6758 52.8732 2.20821 50.4486 3.23322C48.0239 4.25822 45.8274 5.75534 43.9869 7.63741C42.1464 9.51948 40.6987 11.7489 39.7281 14.1958C38.7575 16.6428 38.2834 19.2584 38.3333 21.8903C38.1834 25.6123 39.0856 29.3011 40.9367 32.5337L35 45.0003L47.47 39.0603C50.1283 40.7083 53.1327 41.7168 56.2469 42.0067C59.3611 42.2965 62.5001 41.8597 65.4169 40.7307C68.3336 39.6017 70.9486 37.8112 73.056 35.5002C75.1634 33.1891 76.7058 30.4205 77.5618 27.4123C78.4178 24.4041 78.564 21.2382 77.9889 18.1639C77.4139 15.0896 76.1332 12.1906 74.2478 9.69514C72.3624 7.19968 69.9236 5.1758 67.1233 3.78273C64.323 2.38966 61.2377 1.66542 58.11 1.66699V1.66699Z" stroke="#126A3A" stroke-width="2" stroke-linecap="round" stroke-linejoin="round"/>
</svg>
