<svg width="137" height="137" viewBox="0 0 137 137" fill="none" xmlns="http://www.w3.org/2000/svg">
<g clip-path="url(#clip0_360_5327)">
<path d="M51.1067 85.6702C51.2238 85.3577 51.2165 85.0121 51.0862 84.7048C50.956 84.3975 50.7128 84.1519 50.4067 84.0187C50.339 83.9938 50.2653 83.99 50.1954 84.0079L33.0883 88.5918C32.7359 88.6868 32.4309 88.9082 32.2312 89.2138C28.8782 94.0213 26.5934 99.491 25.5304 105.255C24.4674 111.019 24.6509 116.944 26.0685 122.632C27.6943 128.699 31.6639 133.873 37.104 137.013C42.5442 140.154 49.0091 141.005 55.0768 139.38C56.8556 138.903 58.4886 138.386 59.9904 137.836C60.2278 137.749 60.4385 137.602 60.6017 137.409C60.7649 137.215 60.875 136.983 60.9212 136.735C60.9709 136.485 60.9551 136.226 60.8752 135.985C60.7954 135.743 60.6543 135.526 60.4657 135.355C54.8949 130.307 50.8958 123.762 48.9466 116.501C46.2827 106.264 47.0413 95.4362 51.1067 85.6702Z" fill="#FF8484"/>
<path d="M46.3669 67.1339C46.5677 66.3657 46.5436 65.5559 46.2974 64.801C46.0513 64.046 45.5935 63.3777 44.9785 62.8754C44.3635 62.3731 43.6171 62.0581 42.8282 61.9678C42.0393 61.8774 41.2411 62.0156 40.5284 62.3659C36.9799 64.1198 33.1195 65.1542 29.1694 65.4095C28.3772 65.4625 27.6168 65.7419 26.9787 66.2146C26.3407 66.6873 25.8518 67.3333 25.5704 68.0758C25.2889 68.8183 25.2266 69.626 25.3909 70.4029C25.5552 71.1797 25.9392 71.893 26.4972 72.458L32.6895 78.7067C32.8735 78.8915 33.1029 79.0247 33.3546 79.0928C33.6064 79.1609 33.8716 79.1616 34.1237 79.0948L43.0862 76.6933C43.3367 76.6244 43.5648 76.491 43.7477 76.3065C43.9306 76.1219 44.0619 75.8927 44.1286 75.6416L46.3669 67.1339Z" fill="#FF8484"/>
<path d="M135.566 61.5004C135.24 61.3357 134.865 61.2965 134.512 61.3903L117.788 65.8715C117.468 65.9552 117.186 66.1453 116.989 66.4106L116.893 66.5343C116.779 66.6894 116.729 66.8831 116.755 67.0742C116.781 67.2653 116.881 67.4387 117.033 67.5575C125.645 74.0108 131.873 83.1396 134.74 93.5128C136.679 100.777 136.484 108.446 134.179 115.603C134.102 115.845 134.088 116.104 134.14 116.353C134.191 116.602 134.306 116.834 134.474 117.025C134.641 117.217 134.855 117.363 135.095 117.448C135.334 117.533 135.592 117.555 135.843 117.511C137.418 117.236 139.091 116.868 140.87 116.391C146.937 114.765 152.111 110.796 155.252 105.355C158.392 99.9153 159.243 93.4503 157.618 87.3827C156.004 81.7437 153.201 76.516 149.397 72.0514C145.593 67.5869 140.877 63.9892 135.566 61.5004Z" fill="#FF8484"/>
<path d="M132.16 44.1456C132.36 43.3774 132.336 42.5676 132.09 41.8127C131.844 41.0577 131.386 40.3894 130.771 39.8871C130.156 39.3849 129.41 39.0698 128.621 38.9795C127.832 38.8892 127.034 39.0273 126.321 39.3776C122.773 41.1315 118.912 42.1659 114.962 42.4212C114.17 42.4742 113.409 42.7537 112.771 43.2263C112.133 43.699 111.645 44.345 111.363 45.0875C111.082 45.83 111.019 46.6377 111.184 47.4146C111.348 48.1914 111.732 48.9048 112.29 49.4697L118.477 55.7199C118.661 55.9048 118.89 56.0379 119.142 56.1061C119.393 56.1742 119.659 56.1749 119.911 56.108L128.879 53.705C129.131 53.6368 129.36 53.5036 129.544 53.3187C129.728 53.1339 129.86 52.9038 129.927 52.6518L132.16 44.1456Z" fill="#FF8484"/>
<path d="M64.346 64.0208C64.5292 64.2259 64.7657 64.3763 65.0292 64.455C65.2928 64.5338 65.573 64.5378 65.8387 64.4668L94.0932 56.896C94.3588 56.8247 94.5994 56.6811 94.7883 56.4811C94.9771 56.2811 95.1068 56.0327 95.1628 55.7634L97.3664 45.0214C97.623 43.7755 97.4715 42.4801 96.9344 41.327C96.3973 40.1739 95.5032 39.2244 94.3843 38.6191C93.2655 38.0138 91.9815 37.7849 90.7224 37.9663C89.4634 38.1477 88.2962 38.7298 87.3937 39.6263C86.794 40.2259 86.0467 40.6566 85.2272 40.875C84.494 41.0734 83.7246 41.0976 82.9804 40.9458C82.2362 40.794 81.5378 40.4703 80.9409 40.0006L79.3267 38.735C78.5542 38.1275 77.6508 37.7084 76.6881 37.5109C75.7253 37.3134 74.7299 37.343 73.7806 37.5974C72.8313 37.8517 71.9544 38.3238 71.2194 38.9762C70.4844 39.6286 69.9115 40.4433 69.5463 41.3557L68.7812 43.2587C68.4991 43.964 68.0561 44.5935 67.4875 45.0971C66.9189 45.6007 66.2404 45.9644 65.5063 46.1592C64.6874 46.3798 63.8249 46.3804 63.0057 46.161C61.7759 45.8359 60.4741 45.9154 59.293 46.3878C58.1119 46.8603 57.1144 47.7005 56.4481 48.7841C55.7818 49.8677 55.4822 51.1371 55.5936 52.4042C55.705 53.6714 56.2215 54.869 57.0667 55.8197L64.346 64.0208Z" fill="#FF8484"/>
<path d="M126.16 95.8124C121.869 79.7978 108.826 70.9281 96.0683 65.8685C95.7705 65.7531 95.4437 65.7355 95.1352 65.8182L69.3745 72.7207C69.066 72.8034 68.7918 72.982 68.5917 73.2309C60.0973 83.9911 53.212 98.1944 57.5031 114.209C60.2351 122.819 66.2671 129.996 74.2786 134.168C82.2902 138.34 91.6285 139.169 100.249 136.471C109.069 134.502 116.749 129.117 121.606 121.496C126.463 113.875 128.1 104.639 126.16 95.8124ZM102.391 122.914C102.104 123.075 101.879 123.328 101.752 123.632C101.624 123.936 101.602 124.274 101.688 124.592L101.93 125.495C102.235 126.633 102.076 127.845 101.487 128.865C100.898 129.885 99.9279 130.629 98.7902 130.934C97.6525 131.239 96.4403 131.08 95.4203 130.491C94.4003 129.902 93.656 128.932 93.3511 127.794L93.2239 127.319C93.1223 126.94 92.8742 126.617 92.5342 126.42C92.1942 126.224 91.7901 126.171 91.4109 126.273L89.695 126.732C88.5574 127.037 87.3452 126.878 86.3252 126.289C85.3051 125.7 84.5608 124.73 84.256 123.592C83.9512 122.454 84.1107 121.242 84.6996 120.222C85.2886 119.202 86.2585 118.458 87.3962 118.153L97.474 115.453C98.0997 115.283 98.6328 114.873 98.9568 114.312C99.2809 113.751 99.3695 113.084 99.2033 112.458C99.0783 111.985 98.8134 111.561 98.4434 111.241C98.0733 110.921 97.6152 110.721 97.1292 110.666L85.8054 109.311C83.437 109.031 81.218 108.008 79.4662 106.39C77.7143 104.772 76.5194 102.641 76.0526 100.302C75.5859 97.9633 75.8712 95.5369 76.8677 93.3702C77.8642 91.2035 79.5207 89.4077 81.6002 88.24C81.8872 88.0797 82.1124 87.828 82.2401 87.525C82.3677 87.2221 82.3904 86.8851 82.3046 86.5677L82.0609 85.6583C81.756 84.5206 81.9156 83.3085 82.5045 82.2884C83.0934 81.2684 84.0634 80.5241 85.2011 80.2193C86.3388 79.9144 87.551 80.074 88.571 80.6629C89.591 81.2518 90.3353 82.2218 90.6402 83.3595L90.7689 83.84C90.8705 84.2192 91.1186 84.5425 91.4586 84.7388C91.7986 84.9351 92.2027 84.9883 92.5819 84.8867L94.2978 84.4269C95.4355 84.1221 96.6476 84.2817 97.6677 84.8706C98.6877 85.4595 99.432 86.4295 99.7368 87.5672C100.042 88.7049 99.8821 89.917 99.2932 90.9371C98.7043 91.9571 97.7343 92.7014 96.5966 93.0062L86.5188 95.7066C85.9563 95.8426 85.4604 96.1737 85.119 96.6409C84.7777 97.1082 84.6131 97.6814 84.6545 98.2585C84.6959 98.8357 84.9406 99.3795 85.3452 99.7932C85.7498 100.207 86.2879 100.464 86.864 100.518L98.192 101.866C100.56 102.146 102.779 103.168 104.531 104.786C106.283 106.405 107.478 108.536 107.945 110.874C108.412 113.213 108.126 115.64 107.13 117.806C106.133 119.973 104.477 121.769 102.397 122.936L102.391 122.914Z" fill="#FF8484"/>
</g>
<defs>
<clipPath id="clip0_360_5327">
<rect width="142.111" height="142.111" fill="white" transform="translate(0 36.7812) rotate(-15)"/>
</clipPath>
</defs>
</svg>
