<svg width="80" height="80" viewBox="0 0 80 80" fill="none" xmlns="http://www.w3.org/2000/svg">
<path d="M13.3335 38.3337C13.3335 31.2612 16.143 24.4784 21.144 19.4775C26.145 14.4765 32.9277 11.667 40.0002 11.667C47.0726 11.667 53.8554 14.4765 58.8563 19.4775C63.8573 24.4784 66.6668 31.2612 66.6668 38.3337V60.0003C66.6668 61.3264 67.1936 62.5982 68.1313 63.5359C69.069 64.4735 70.3407 65.0003 71.6668 65.0003H8.3335C9.65958 65.0003 10.9313 64.4735 11.869 63.5359C12.8067 62.5982 13.3335 61.3264 13.3335 60.0003V38.3337Z" stroke="#126A3A" stroke-width="2" stroke-linecap="round" stroke-linejoin="round"/>
<path d="M40 1.67285V11.6729" stroke="#126A3A" stroke-width="2" stroke-linecap="round" stroke-linejoin="round"/>
<path d="M48.1693 71.667C47.7867 73.5508 46.7647 75.2445 45.2764 76.461C43.788 77.6775 41.9249 78.342 40.0026 78.342C38.0803 78.342 36.2172 77.6775 34.7288 76.461C33.2405 75.2445 32.2185 73.5508 31.8359 71.667" stroke="#126A3A" stroke-width="2" stroke-linecap="round" stroke-linejoin="round"/>
<path d="M48.3335 23.2295C50.8359 24.471 52.9419 26.3867 54.4143 28.7607C55.8866 31.1347 56.6667 33.8727 56.6668 36.6662" stroke="#126A3A" stroke-width="2" stroke-linecap="round" stroke-linejoin="round"/>
</svg>
