<svg width="80" height="80" viewBox="0 0 80 80" fill="none" xmlns="http://www.w3.org/2000/svg">
<path d="M53.3457 51.667C67.1528 51.667 78.3457 40.4741 78.3457 26.667C78.3457 12.8599 67.1528 1.66699 53.3457 1.66699C39.5386 1.66699 28.3457 12.8599 28.3457 26.667C28.3457 40.4741 39.5386 51.667 53.3457 51.667Z" stroke="#126A3A" stroke-width="2" stroke-linecap="round" stroke-linejoin="round"/>
<path d="M28.4336 28.4224C23.3505 28.0609 18.2783 29.2614 13.8965 31.8631C9.51478 34.4648 6.03274 38.3435 3.91691 42.9794C1.80107 47.6154 1.1525 52.7872 2.05808 57.802C2.96366 62.8169 5.38014 67.4352 8.98378 71.0383C12.5874 74.6415 17.2061 77.0573 22.2211 77.9621C27.2361 78.867 32.4078 78.2177 37.0434 76.1012C41.6791 73.9847 45.5572 70.5021 48.1583 66.1199C50.7594 61.7378 51.9592 56.6654 51.5969 51.5824" stroke="#126A3A" stroke-width="2" stroke-linecap="round" stroke-linejoin="round"/>
<path d="M3.28125 16.7851L9.96792 23.4285L16.6146 16.7451" stroke="#126A3A" stroke-width="2" stroke-linecap="round" stroke-linejoin="round"/>
<path d="M26.5777 3.37891C24.389 3.38546 22.223 3.82305 20.2034 4.66669C18.1838 5.51034 16.3502 6.74351 14.8072 8.29579C13.2642 9.84808 12.042 11.6891 11.2105 13.7137C10.379 15.7383 9.95444 17.9069 9.96101 20.0956V23.4289" stroke="#126A3A" stroke-width="2" stroke-linecap="round" stroke-linejoin="round"/>
<path d="M76.7454 63.2185L70.0588 56.5752L63.4121 63.2585" stroke="#126A3A" stroke-width="2" stroke-linecap="round" stroke-linejoin="round"/>
<path d="M53.4512 76.6252C55.6399 76.6186 57.8058 76.181 59.8254 75.3374C61.845 74.4938 63.6787 73.2606 65.2217 71.7083C66.7647 70.156 67.9868 68.315 68.8183 66.2904C69.6498 64.2658 70.0744 62.0972 70.0678 59.9085V56.5752" stroke="#126A3A" stroke-width="2" stroke-linecap="round" stroke-linejoin="round"/>
<path d="M28.3351 65.0011C26.9841 65.1573 25.6152 65.0061 24.3309 64.5588C23.0466 64.1115 21.8799 63.3796 20.9183 62.418C19.9566 61.4563 19.2247 60.2897 18.7774 59.0053C18.3301 57.721 18.1789 56.3521 18.3351 55.0011C18.1789 53.6501 18.3301 52.2813 18.7774 50.9969C19.2247 49.7126 19.9566 48.546 20.9183 47.5843C21.8799 46.6226 23.0466 45.8908 24.3309 45.4434C25.6152 44.9961 26.9841 44.8449 28.3351 45.0011" stroke="#126A3A" stroke-width="2" stroke-linecap="round" stroke-linejoin="round"/>
<path d="M15.0137 51.667H28.347" stroke="#126A3A" stroke-width="2" stroke-linecap="round" stroke-linejoin="round"/>
<path d="M15.0137 58.333H25.0137" stroke="#126A3A" stroke-width="2" stroke-linecap="round" stroke-linejoin="round"/>
<path d="M58.3342 15.0001H52.6675C51.7319 14.9929 50.819 15.2887 50.0654 15.8434C49.3119 16.398 48.7581 17.1817 48.4868 18.0772C48.2156 18.9727 48.2415 19.9319 48.5607 20.8114C48.8798 21.691 49.4751 22.4436 50.2575 22.9568L56.3908 27.0435C57.1717 27.5557 57.7663 28.3065 58.0858 29.1841C58.4054 30.0617 58.4329 31.019 58.1642 31.9134C57.8955 32.8079 57.3451 33.5916 56.5948 34.1478C55.8446 34.704 54.9348 35.003 54.0008 35.0001H48.3342" stroke="#126A3A" stroke-width="2" stroke-linecap="round" stroke-linejoin="round"/>
<path d="M55.0137 15.0003V11.667" stroke="#126A3A" stroke-width="2" stroke-linecap="round" stroke-linejoin="round"/>
<path d="M51.6797 38.3333V35" stroke="#126A3A" stroke-width="2" stroke-linecap="round" stroke-linejoin="round"/>
</svg>
