<svg width="80" height="80" viewBox="0 0 80 80" fill="none" xmlns="http://www.w3.org/2000/svg">
<g clip-path="url(#clip0_360_6610)">
<path d="M58.68 7.34874e-05C58.1627 -0.00525985 57.688 0.280073 57.4587 0.736073L51.6 12.4161L38.48 14.2827C37.3787 14.4427 36.9387 15.7761 37.7387 16.5387L47.8853 25.6241L45.344 38.4507C45.1573 39.5334 46.312 40.3574 47.2987 39.8454L58.6667 33.7867L70.096 39.8481C71.0827 40.3547 72.2293 39.5334 72.048 38.4561L69.536 25.6294L79.5893 16.5414C80.3893 15.7787 79.952 14.4427 78.848 14.2854L65.7387 12.4187L59.872 0.73874C59.648 0.293407 59.1867 0.00540682 58.68 7.34874e-05ZM58.6667 4.30674L63.6347 14.2001C63.8293 14.5947 64.2107 14.8667 64.648 14.9281L75.7627 16.5147L67.1573 24.2214C66.8373 24.5201 66.696 24.9574 66.7707 25.3841L68.9387 36.2641L59.296 31.1254C58.904 30.9227 58.4373 30.9227 58.0427 31.1254L48.4693 36.2614L50.664 25.3814C50.7387 24.9547 50.592 24.5147 50.2773 24.2134L41.5787 16.5067L52.688 14.9227C53.128 14.8614 53.5067 14.5894 53.7013 14.1974L58.6667 4.30674ZM44 48.0001C41.808 48.0001 40 49.8081 40 52.0001V76.0001C40 78.1921 41.808 80.0001 44 80.0001H68C70.192 80.0001 72 78.1921 72 76.0001V52.0001C72 49.8081 70.192 48.0001 68 48.0001H44ZM44 50.6667H68C68.7627 50.6667 69.3333 51.2374 69.3333 52.0001V76.0001C69.3333 76.7627 68.7627 77.3334 68 77.3334H44C43.2373 77.3334 42.6667 76.7627 42.6667 76.0001V52.0001C42.6667 51.2374 43.2373 50.6667 44 50.6667ZM4 8.00007C1.808 8.00007 0 9.80807 0 12.0001V36.0001C0 38.1921 1.808 40.0001 4 40.0001H28C30.192 40.0001 32 38.1921 32 36.0001V12.0001C32 9.80807 30.192 8.00007 28 8.00007H4ZM4 10.6667H28C28.7627 10.6667 29.3333 11.2374 29.3333 12.0001V36.0001C29.3333 36.7627 28.7627 37.3334 28 37.3334H4C3.23733 37.3334 2.66667 36.7627 2.66667 36.0001V12.0001C2.66667 11.2374 3.23733 10.6667 4 10.6667ZM4 48.0001C1.808 48.0001 0 49.8081 0 52.0001V76.0001C0 78.1921 1.808 80.0001 4 80.0001H28C30.192 80.0001 32 78.1921 32 76.0001V52.0001C32 49.8081 30.192 48.0001 28 48.0001H4ZM4 50.6667H28C28.7627 50.6667 29.3333 51.2374 29.3333 52.0001V76.0001C29.3333 76.7627 28.7627 77.3334 28 77.3334H4C3.23733 77.3334 2.66667 76.7627 2.66667 76.0001V52.0001C2.66667 51.2374 3.23733 50.6667 4 50.6667Z" fill="#126A3A"/>
</g>
<defs>
<clipPath id="clip0_360_6610">
<rect width="80" height="80" fill="white"/>
</clipPath>
</defs>
</svg>
