<svg width="80" height="80" viewBox="0 0 80 80" fill="none" xmlns="http://www.w3.org/2000/svg">
<path d="M78.2967 73.2441C70.13 74.9807 63.32 66.5107 63.32 66.5107C62.0682 68.4907 60.3501 70.1337 58.3163 71.2959C56.2824 72.4581 53.9947 73.1041 51.6533 73.1774C49.2986 73.168 46.9864 72.5491 44.9419 71.3808C42.8974 70.2125 41.1902 68.5347 39.9867 66.5107C38.7824 68.534 37.075 70.2113 35.0307 71.3795C32.9864 72.5477 30.6745 73.1671 28.32 73.1774C25.9786 73.1041 23.6909 72.4581 21.657 71.2959C19.6232 70.1337 17.9051 68.4907 16.6533 66.5107C16.6533 66.5107 9.82332 74.9141 1.65332 73.1774" stroke="#126A3A" stroke-width="2" stroke-linecap="round" stroke-linejoin="round"/>
<path d="M23.2457 52.2107C20.5633 50.9636 18.2847 48.9887 16.669 46.5107C16.669 46.5107 9.85905 54.9974 1.69238 53.2441" stroke="#126A3A" stroke-width="2.5" stroke-linecap="round" stroke-linejoin="round"/>
<path d="M78.3328 53.1074C69.9995 54.8441 64.8028 46.5107 64.8028 46.5107C63.5553 48.4878 61.8549 50.1393 59.8424 51.3288C57.8299 52.5182 55.5631 53.2113 53.2295 53.3507" stroke="#126A3A" stroke-width="2" stroke-linecap="round" stroke-linejoin="round"/>
<path d="M38.3203 6.52344V46.5134" stroke="#126A3A" stroke-width="2.5" stroke-linecap="round" stroke-linejoin="round"/>
<path d="M38.3203 13.1904H54.9836" stroke="#126A3A" stroke-width="2" stroke-linecap="round" stroke-linejoin="round"/>
<path d="M38.3203 23.1904H54.9836" stroke="#126A3A" stroke-width="2.5" stroke-linecap="round" stroke-linejoin="round"/>
<path d="M38.3203 33.1836H54.9836" stroke="#126A3A" stroke-width="2" stroke-linecap="round" stroke-linejoin="round"/>
<path d="M38.32 59.8441C42.0019 59.8441 44.9867 56.8593 44.9867 53.1774C44.9867 49.4955 42.0019 46.5107 38.32 46.5107C34.6381 46.5107 31.6533 49.4955 31.6533 53.1774C31.6533 56.8593 34.6381 59.8441 38.32 59.8441Z" stroke="#126A3A" stroke-width="2.5" stroke-linecap="round" stroke-linejoin="round"/>
</svg>
