<svg width="68" height="66" viewBox="0 0 68 66" fill="none" xmlns="http://www.w3.org/2000/svg">
<path d="M51.6372 1.49828L49.9947 0.675781L48.6622 1.34078V1.34328L34.0022 8.67328L18.0072 0.675781L0.679688 9.33828V65.3158L18.0072 56.6533L34.0022 64.6508L49.9972 56.6533L67.3247 65.3158V9.33828L51.6397 1.49578L51.6372 1.49828ZM16.6722 54.3408L3.34469 61.0058V10.9883L16.6722 4.32328V54.3408ZM32.6672 61.0058L19.3397 54.3408V4.32328L32.6672 10.9883V61.0058ZM48.6597 54.3408L35.3322 61.0058V10.9883L48.6597 4.32328V54.3408ZM64.6547 61.0058L51.3272 54.3408V4.32328L64.6547 10.9883V61.0058Z" fill="#126A3A"/>
</svg>
