<svg width="80" height="80" viewBox="0 0 80 80" fill="none" xmlns="http://www.w3.org/2000/svg">
<path d="M39.9997 51.6663C46.443 51.6663 51.6663 46.443 51.6663 39.9997C51.6663 33.5564 46.443 28.333 39.9997 28.333C33.5564 28.333 28.333 33.5564 28.333 39.9997C28.333 46.443 33.5564 51.6663 39.9997 51.6663Z" stroke="#126A3A" stroke-width="2" stroke-linecap="round" stroke-linejoin="round"/>
<path d="M77.9216 38.9063C74.0449 34.5063 58.5416 18.333 40.0016 18.333C21.4616 18.333 5.95825 34.5063 2.08158 38.9063C1.818 39.2096 1.67285 39.5979 1.67285 39.9997C1.67285 40.4015 1.818 40.7897 2.08158 41.093C5.95825 45.493 21.4616 61.6663 40.0016 61.6663C58.5416 61.6663 74.0449 45.493 77.9216 41.093C78.1852 40.7897 78.3303 40.4015 78.3303 39.9997C78.3303 39.5979 78.1852 39.2096 77.9216 38.9063V38.9063Z" stroke="#126A3A" stroke-width="2" stroke-linecap="round" stroke-linejoin="round"/>
</svg>
