<svg width="80" height="80" viewBox="0 0 80 80" fill="none" xmlns="http://www.w3.org/2000/svg">
<path d="M60.6664 35.9746L65.7964 47.8746H75.7964C76.3004 47.8555 76.798 47.9925 77.2213 48.2668C77.6445 48.5411 77.9728 48.9393 78.1614 49.4071C78.3499 49.875 78.3894 50.3896 78.2746 50.8807C78.1597 51.3718 77.8961 51.8155 77.5197 52.1513L68.853 59.8713L73.653 70.9146C73.8637 71.4197 73.9107 71.9781 73.7874 72.5113C73.6641 73.0445 73.3767 73.5257 72.9657 73.887C72.5546 74.2483 72.0407 74.4717 71.4961 74.5257C70.9515 74.5797 70.4036 74.4616 69.9297 74.1879L58.333 67.6646L46.733 74.1879C46.2591 74.4616 45.7112 74.5797 45.1666 74.5257C44.622 74.4717 44.1081 74.2483 43.6971 73.887C43.286 73.5257 42.9987 73.0445 42.8754 72.5113C42.7521 71.9781 42.799 71.4197 43.0097 70.9146L47.8097 59.8713L39.143 52.1546C38.7661 51.8197 38.5017 51.3767 38.3858 50.8859C38.27 50.3952 38.3084 49.8807 38.4958 49.4126C38.6832 48.9445 39.0104 48.5456 39.4329 48.2703C39.8554 47.9951 40.3525 47.8569 40.8564 47.8746H50.8564L55.9897 35.9746C56.2195 35.5554 56.5578 35.2056 56.9692 34.962C57.3806 34.7184 57.8499 34.5898 58.328 34.5898C58.8061 34.5898 59.2754 34.7184 59.6868 34.962C60.0982 35.2056 60.4365 35.5554 60.6664 35.9746V35.9746Z" stroke="#126A3A" stroke-width="2" stroke-linecap="round" stroke-linejoin="round"/>
<path d="M35.146 66.2132L7.33604 37.5732C4.47105 34.7631 2.57542 31.1137 1.92394 27.1539C1.27246 23.1941 1.89899 19.1297 3.7127 15.5499V15.5499C5.11008 12.8374 7.12562 10.4914 9.59664 8.70132C12.0677 6.91124 14.9249 5.72721 17.9378 5.2448C20.9508 4.76238 24.0349 4.9951 26.9413 5.92416C29.8477 6.85322 32.4949 8.45259 34.6694 10.5932L40.0027 15.4565L45.336 10.5932C47.5108 8.45327 50.1581 6.85449 53.0644 5.92584C55.9707 4.9972 59.0545 4.76468 62.0672 5.24706C65.0799 5.72944 67.937 6.9132 70.408 8.70284C72.879 10.4925 74.8948 12.8379 76.2927 15.5499V15.5499C78.1054 19.1299 78.7313 23.1941 78.0799 27.1536C77.4285 31.1132 75.5335 34.7626 72.6694 37.5732" stroke="#126A3A" stroke-width="2" stroke-linecap="round" stroke-linejoin="round"/>
</svg>
