<svg width="18" height="18" viewBox="0 0 18 18" fill="none" xmlns="http://www.w3.org/2000/svg">
<path d="M8.64977 1.17827C8.67662 1.10688 8.72461 1.04537 8.78732 1.00195C8.85003 0.958533 8.9245 0.935272 9.00077 0.935272C9.07705 0.935272 9.15151 0.958533 9.21423 1.00195C9.27694 1.04537 9.32492 1.10688 9.35177 1.17827L11.25 6.56027H16.611C16.6877 6.56027 16.7625 6.58376 16.8254 6.62758C16.8883 6.6714 16.9363 6.73344 16.9628 6.80536C16.9894 6.87727 16.9933 6.95559 16.9739 7.02978C16.9546 7.10397 16.913 7.17045 16.8548 7.22027L12.375 10.9343L14.25 16.5668C14.2751 16.6422 14.2755 16.7237 14.2513 16.7995C14.227 16.8752 14.1793 16.9413 14.115 16.9881C14.0507 17.035 13.9732 17.0601 13.8937 17.06C13.8141 17.0599 13.7367 17.0345 13.6725 16.9875L9.00002 13.5593L4.32527 16.9875C4.26107 17.0336 4.18395 17.0582 4.10492 17.0579C4.0259 17.0575 3.949 17.0322 3.88521 16.9856C3.82142 16.9389 3.77401 16.8733 3.74973 16.7981C3.72545 16.7229 3.72555 16.6419 3.75002 16.5668L5.62502 10.9343L1.14452 7.22027C1.08626 7.17045 1.04467 7.10397 1.02535 7.02978C1.00603 6.95559 1.00991 6.87727 1.03647 6.80536C1.06303 6.73344 1.11099 6.6714 1.17389 6.62758C1.23679 6.58376 1.31161 6.56027 1.38827 6.56027H6.75002L8.64977 1.17827Z" stroke="#FFC453" stroke-width="0.5" stroke-linecap="round" stroke-linejoin="round"/>
</svg>
