<svg width="18" height="18" viewBox="0 0 18 18" fill="none" xmlns="http://www.w3.org/2000/svg">
<path d="M8.64971 1.17827C8.67656 1.10688 8.72455 1.04537 8.78726 1.00195C8.84997 0.958533 8.92444 0.935272 9.00071 0.935272C9.07699 0.935272 9.15145 0.958533 9.21417 1.00195C9.27688 1.04537 9.32486 1.10688 9.35171 1.17827L11.25 6.56027H16.611C16.6876 6.56027 16.7624 6.58376 16.8253 6.62758C16.8882 6.6714 16.9362 6.73344 16.9628 6.80536C16.9893 6.87727 16.9932 6.95559 16.9739 7.02978C16.9546 7.10397 16.913 7.17045 16.8547 7.22027L12.375 10.9343L14.25 16.5668C14.275 16.6422 14.2755 16.7237 14.2512 16.7995C14.2269 16.8752 14.1792 16.9413 14.1149 16.9881C14.0506 17.035 13.9731 17.0601 13.8936 17.06C13.8141 17.0599 13.7366 17.0345 13.6725 16.9875L8.99996 13.5593L4.32521 16.9875C4.26101 17.0336 4.18389 17.0582 4.10486 17.0579C4.02583 17.0575 3.94894 17.0322 3.88515 16.9856C3.82136 16.9389 3.77394 16.8733 3.74967 16.7981C3.72539 16.7229 3.72549 16.6419 3.74996 16.5668L5.62496 10.9343L1.14446 7.22027C1.0862 7.17045 1.04461 7.10397 1.02529 7.02978C1.00597 6.95559 1.00985 6.87727 1.03641 6.80536C1.06297 6.73344 1.11093 6.6714 1.17383 6.62758C1.23673 6.58376 1.31155 6.56027 1.38821 6.56027H6.74996L8.64971 1.17827Z" fill="#FFC453" stroke="#FFB927" stroke-width="0.5" stroke-linecap="round" stroke-linejoin="round"/>
</svg>
