<svg width="65" height="64" viewBox="0 0 65 64" fill="none" xmlns="http://www.w3.org/2000/svg">
<path d="M53.8333 5.33333C53.8333 3.91885 53.2714 2.56229 52.2712 1.5621C51.271 0.561903 49.9145 0 48.5 0L5.83333 0C4.41885 0 3.06229 0.561903 2.0621 1.5621C1.0619 2.56229 0.5 3.91885 0.5 5.33333L0.5 8C0.5 8.17681 0.570238 8.34638 0.695262 8.47141C0.820286 8.59643 0.989856 8.66667 1.16667 8.66667H53.1667C53.3435 8.66667 53.513 8.59643 53.6381 8.47141C53.7631 8.34638 53.8333 8.17681 53.8333 8V5.33333Z" fill="#FF5A5F"/>
<path d="M36.2333 35.0374C36.331 34.9874 36.4148 34.914 36.4771 34.8237C36.5395 34.7334 36.5785 34.6291 36.5907 34.5201C36.9585 31.2634 38.5113 28.2558 40.9533 26.07C43.3953 23.8842 46.556 22.6729 49.8333 22.6667C50.9024 22.6743 51.9662 22.8186 52.9987 23.0961C53.0973 23.1218 53.2004 23.1245 53.3002 23.1041C53.4 23.0837 53.4938 23.0407 53.5744 22.9783C53.655 22.916 53.7203 22.8361 53.7652 22.7446C53.81 22.6532 53.8334 22.5526 53.8333 22.4507V13.3334C53.8333 13.1566 53.7631 12.987 53.6381 12.862C53.513 12.737 53.3435 12.6667 53.1667 12.6667H1.16667C0.989856 12.6667 0.820286 12.737 0.695262 12.862C0.570238 12.987 0.5 13.1566 0.5 13.3334L0.5 34.6667C0.5 36.0812 1.0619 37.4378 2.0621 38.438C3.06229 39.4382 4.41885 40.0001 5.83333 40.0001H31.3587C31.4887 40.0002 31.616 39.9624 31.7249 39.8914C31.8338 39.8204 31.9197 39.7191 31.972 39.6001C32.8286 37.6364 34.3327 36.026 36.2333 35.0374ZM16.5 32.6667H8.5C7.96957 32.6667 7.46086 32.456 7.08579 32.081C6.71071 31.7059 6.5 31.1972 6.5 30.6667C6.5 30.1363 6.71071 29.6276 7.08579 29.2525C7.46086 28.8775 7.96957 28.6667 8.5 28.6667H16.5C17.0304 28.6667 17.5391 28.8775 17.9142 29.2525C18.2893 29.6276 18.5 30.1363 18.5 30.6667C18.5 31.1972 18.2893 31.7059 17.9142 32.081C17.5391 32.456 17.0304 32.6667 16.5 32.6667ZM25.8333 23.3334H8.5C7.96957 23.3334 7.46086 23.1227 7.08579 22.7476C6.71071 22.3726 6.5 21.8638 6.5 21.3334C6.5 20.803 6.71071 20.2943 7.08579 19.9192C7.46086 19.5441 7.96957 19.3334 8.5 19.3334H25.8333C26.3638 19.3334 26.8725 19.5441 27.2475 19.9192C27.6226 20.2943 27.8333 20.803 27.8333 21.3334C27.8333 21.8638 27.6226 22.3726 27.2475 22.7476C26.8725 23.1227 26.3638 23.3334 25.8333 23.3334Z" fill="#FF5A5F"/>
<path d="M61.0707 41.3734C60.9121 41.3509 60.767 41.2718 60.6622 41.1508C60.5573 41.0298 60.4997 40.8749 60.5 40.7147V38.0001C60.5 35.5247 59.5167 33.1508 57.7663 31.4004C56.016 29.6501 53.642 28.6667 51.1667 28.6667C48.6913 28.6667 46.3174 29.6501 44.567 31.4004C42.8167 33.1508 41.8333 35.5247 41.8333 38.0001V40.7147C41.8336 40.8749 41.7761 41.0298 41.6712 41.1508C41.5663 41.2718 41.4212 41.3509 41.2627 41.3734C40.3104 41.5107 39.4394 41.9866 38.8096 42.7139C38.1797 43.4413 37.8331 44.3713 37.8333 45.3334V60.0001C37.8333 61.0609 38.2548 62.0784 39.0049 62.8285C39.7551 63.5787 40.7725 64.0001 41.8333 64.0001H60.5C61.5609 64.0001 62.5783 63.5787 63.3284 62.8285C64.0786 62.0784 64.5 61.0609 64.5 60.0001V45.3334C64.5002 44.3713 64.1536 43.4413 63.5238 42.7139C62.8939 41.9866 62.023 41.5107 61.0707 41.3734ZM51.1667 34.0001C52.2275 34.0001 53.245 34.4215 53.9951 35.1717C54.7452 35.9218 55.1667 36.9392 55.1667 38.0001V40.6667C55.1667 40.8436 55.0964 41.0131 54.9714 41.1382C54.8464 41.2632 54.6768 41.3334 54.5 41.3334H47.8333C47.6565 41.3334 47.487 41.2632 47.3619 41.1382C47.2369 41.0131 47.1667 40.8436 47.1667 40.6667V38.0001C47.1667 36.9392 47.5881 35.9218 48.3383 35.1717C49.0884 34.4215 50.1058 34.0001 51.1667 34.0001ZM53.8333 54.0001C53.8333 54.5275 53.6769 55.0431 53.3839 55.4816C53.0909 55.9201 52.6744 56.2619 52.1872 56.4638C51.6999 56.6656 51.1637 56.7184 50.6464 56.6155C50.1292 56.5126 49.654 56.2586 49.2811 55.8857C48.9081 55.5128 48.6541 55.0376 48.5512 54.5203C48.4484 54.003 48.5012 53.4669 48.703 52.9796C48.9048 52.4923 49.2466 52.0758 49.6852 51.7828C50.1237 51.4898 50.6393 51.3334 51.1667 51.3334C51.8739 51.3334 52.5522 51.6144 53.0523 52.1145C53.5524 52.6146 53.8333 53.2928 53.8333 54.0001Z" fill="#FF5A5F"/>
</svg>
