<svg width="74" height="71" viewBox="0 0 74 71" fill="none" xmlns="http://www.w3.org/2000/svg">
<g opacity="0.2" clip-path="url(#clip0_189_1269)">
<path d="M73.4956 44.3333C73.4963 41.8528 72.7271 39.4332 71.2942 37.4085C69.8612 35.3837 67.8352 33.8536 65.4956 33.0293V31C65.4956 24.6348 62.967 18.5303 58.4662 14.0294C53.9653 9.52856 47.8608 7 41.4956 7C35.1304 7 29.0259 9.52856 24.525 14.0294C20.0242 18.5303 17.4956 24.6348 17.4956 31V33.0293C15.1581 33.8578 13.1347 35.3901 11.7036 37.4155C10.2726 39.441 9.5042 41.86 9.5042 44.34C9.5042 46.82 10.2726 49.239 11.7036 51.2645C13.1347 53.2899 15.1581 54.8222 17.4956 55.6507C18.0989 55.864 18.7445 55.9294 19.3783 55.8415C20.0121 55.7536 20.6156 55.515 21.1381 55.1456C21.6606 54.7762 22.0868 54.2868 22.381 53.7186C22.6752 53.1504 22.8288 52.5199 22.8289 51.88V31C22.8289 28.5487 23.3118 26.1213 24.2499 23.8566C25.1879 21.5918 26.5629 19.534 28.2963 17.8007C30.0296 16.0673 32.0874 14.6923 34.3522 13.7542C36.6169 12.8162 39.0443 12.3333 41.4956 12.3333C43.9469 12.3333 46.3743 12.8162 48.639 13.7542C50.9038 14.6923 52.9616 16.0673 54.6949 17.8007C56.4283 19.534 57.8033 21.5918 58.7414 23.8566C59.6794 26.1213 60.1623 28.5487 60.1623 31V51.88C60.168 52.4348 60.2896 52.9824 60.5192 53.4875C60.7488 53.9926 61.0813 54.4442 61.4956 54.8133V56.3333C61.4956 60.264 58.0529 61.6667 54.8289 61.6667H50.0876C49.5006 60.6499 48.5945 59.8553 47.5098 59.406C46.4251 58.9567 45.2225 58.8779 44.0884 59.1817C42.9544 59.4856 41.9523 60.1552 41.2376 61.0866C40.5229 62.018 40.1355 63.1593 40.1355 64.3333C40.1355 65.5074 40.5229 66.6486 41.2376 67.5801C41.9523 68.5115 42.9544 69.1811 44.0884 69.4849C45.2225 69.7888 46.4251 69.71 47.5098 69.2607C48.5945 68.8114 49.5006 68.0168 50.0876 67H54.8289C61.8956 67 66.8289 62.6133 66.8289 56.3333V55.0587C68.8272 54.0672 70.5096 52.5384 71.6872 50.6439C72.8649 48.7493 73.4911 46.564 73.4956 44.3333Z" fill="#004E89"/>
<path d="M49.8796 44.4532C50.0823 44.1433 50.3593 43.8891 50.6853 43.7135C51.0113 43.5379 51.376 43.4466 51.7463 43.4479C52.1764 43.4467 52.5974 43.5718 52.9569 43.8079C53.2018 43.9672 53.4128 44.1732 53.578 44.4142C53.7431 44.6551 53.8591 44.9263 53.9192 45.2121C53.9794 45.498 53.9827 45.7929 53.9287 46.08C53.8748 46.3671 53.7648 46.6407 53.6049 46.8852C52.2925 48.9003 50.4979 50.5559 48.3838 51.7019C46.2697 52.848 43.903 53.4482 41.4983 53.4482C39.0935 53.4482 36.7268 52.848 34.6127 51.7019C32.4986 50.5559 30.704 48.9003 29.3916 46.8852C29.0691 46.3901 28.9565 45.7872 29.0785 45.2091C29.2005 44.631 29.5472 44.1251 30.0423 43.8025C30.5373 43.48 31.1403 43.3674 31.7184 43.4894C32.2965 43.6115 32.8024 43.9581 33.1249 44.4532C34.0329 45.8498 35.2754 46.9975 36.7395 47.792C38.2037 48.5865 39.8431 49.0027 41.5089 49.0027C43.1748 49.0027 44.8142 48.5865 46.2783 47.792C47.7425 46.9975 48.985 45.8498 49.8929 44.4532H49.8796Z" fill="#004E89"/>
<path d="M32.6076 36.7813C35.0627 36.7813 37.0529 34.791 37.0529 32.336C37.0529 29.8809 35.0627 27.8906 32.6076 27.8906C30.1525 27.8906 28.1623 29.8809 28.1623 32.336C28.1623 34.791 30.1525 36.7813 32.6076 36.7813Z" fill="#004E89"/>
<path d="M50.3836 36.7813C52.8387 36.7813 54.8289 34.791 54.8289 32.336C54.8289 29.8809 52.8387 27.8906 50.3836 27.8906C47.9285 27.8906 45.9383 29.8809 45.9383 32.336C45.9383 34.791 47.9285 36.7813 50.3836 36.7813Z" fill="#004E89"/>
</g>
<path d="M64.4958 37.3333C64.4965 34.8528 63.7273 32.4332 62.2944 30.4085C60.8614 28.3837 58.8354 26.8536 56.4958 26.0293V24C56.4958 17.6348 53.9672 11.5303 49.4664 7.02944C44.9655 2.52856 38.861 0 32.4958 0C26.1306 0 20.0261 2.52856 15.5252 7.02944C11.0244 11.5303 8.4958 17.6348 8.4958 24V26.0293C6.15828 26.8578 4.13485 28.3901 2.7038 30.4155C1.27276 32.441 0.504395 34.86 0.504395 37.34C0.504395 39.82 1.27276 42.239 2.7038 44.2645C4.13485 46.2899 6.15828 47.8222 8.4958 48.6507C9.09908 48.864 9.74473 48.9294 10.3785 48.8415C11.0123 48.7536 11.6158 48.515 12.1383 48.1456C12.6608 47.7762 13.087 47.2868 13.3812 46.7186C13.6754 46.1504 13.829 45.5199 13.8291 44.88V24C13.8291 21.5487 14.312 19.1213 15.25 16.8566C16.1881 14.5918 17.5631 12.534 19.2965 10.8007C21.0298 9.06731 23.0876 7.69234 25.3524 6.75425C27.6171 5.81616 30.0445 5.33333 32.4958 5.33333C34.9471 5.33333 37.3745 5.81616 39.6392 6.75425C41.904 7.69234 43.9618 9.06731 45.6951 10.8007C47.4285 12.534 48.8035 14.5918 49.7416 16.8566C50.6796 19.1213 51.1625 21.5487 51.1625 24V44.88C51.1682 45.4348 51.2898 45.9824 51.5194 46.4875C51.749 46.9926 52.0815 47.4442 52.4958 47.8133V49.3333C52.4958 53.264 49.0531 54.6667 45.8291 54.6667H41.0878C40.5008 53.6499 39.5947 52.8553 38.51 52.406C37.4253 51.9567 36.2227 51.8779 35.0886 52.1817C33.9546 52.4856 32.9525 53.1552 32.2378 54.0866C31.5231 55.018 31.1357 56.1593 31.1357 57.3333C31.1357 58.5074 31.5231 59.6486 32.2378 60.5801C32.9525 61.5115 33.9546 62.1811 35.0886 62.4849C36.2227 62.7888 37.4253 62.71 38.51 62.2607C39.5947 61.8114 40.5008 61.0168 41.0878 60H45.8291C52.8958 60 57.8291 55.6133 57.8291 49.3333V48.0587C59.8274 47.0672 61.5098 45.5384 62.6874 43.6439C63.8651 41.7493 64.4913 39.564 64.4958 37.3333Z" fill="#004E89"/>
<path d="M40.8798 37.4532C41.0825 37.1433 41.3594 36.8891 41.6855 36.7135C42.0115 36.5379 42.3762 36.4466 42.7465 36.4479C43.1766 36.4467 43.5976 36.5718 43.9571 36.8079C44.202 36.9672 44.413 37.1732 44.5781 37.4142C44.7433 37.6551 44.8592 37.9263 44.9194 38.2121C44.9796 38.498 44.9829 38.7929 44.9289 39.08C44.875 39.3671 44.765 39.6407 44.6051 39.8852C43.2927 41.9003 41.4981 43.5559 39.384 44.7019C37.2699 45.848 34.9032 46.4482 32.4985 46.4482C30.0937 46.4482 27.727 45.848 25.6129 44.7019C23.4988 43.5559 21.7042 41.9003 20.3918 39.8852C20.0693 39.3901 19.9567 38.7872 20.0787 38.2091C20.2007 37.631 20.5474 37.1251 21.0425 36.8025C21.5375 36.48 22.1404 36.3674 22.7186 36.4894C23.2967 36.6115 23.8026 36.9581 24.1251 37.4532C25.0331 38.8498 26.2756 39.9975 27.7397 40.792C29.2039 41.5865 30.8433 42.0027 32.5091 42.0027C34.175 42.0027 35.8144 41.5865 37.2785 40.792C38.7427 39.9975 39.9852 38.8498 40.8931 37.4532H40.8798Z" fill="#004E89"/>
<path d="M23.6078 29.7813C26.0629 29.7813 28.0531 27.791 28.0531 25.336C28.0531 22.8809 26.0629 20.8906 23.6078 20.8906C21.1527 20.8906 19.1625 22.8809 19.1625 25.336C19.1625 27.791 21.1527 29.7813 23.6078 29.7813Z" fill="#004E89"/>
<path d="M41.3838 29.7813C43.8389 29.7813 45.8291 27.791 45.8291 25.336C45.8291 22.8809 43.8389 20.8906 41.3838 20.8906C38.9287 20.8906 36.9385 22.8809 36.9385 25.336C36.9385 27.791 38.9287 29.7813 41.3838 29.7813Z" fill="#004E89"/>
<defs>
<clipPath id="clip0_189_1269">
<rect width="64" height="64" fill="white" transform="translate(9.49561 7)"/>
</clipPath>
</defs>
</svg>
