<svg width="80" height="72" viewBox="0 0 80 72" fill="none" xmlns="http://www.w3.org/2000/svg">
<g opacity="0.25" clip-path="url(#clip0_189_1241)">
<path d="M17.824 16.6667H46.176C47.2129 16.6919 48.1976 17.127 48.9143 17.8768C49.6311 18.6265 50.0215 19.6297 50 20.6667V46.7387C50.0001 46.8503 49.972 46.9601 49.9184 47.058C49.8648 47.1559 49.7874 47.2387 49.6933 47.2987C48.6533 47.9608 47.7807 48.8547 47.1441 49.9105C46.5075 50.9663 46.1241 52.1553 46.024 53.3841C46.0107 53.5513 45.935 53.7074 45.812 53.8214C45.6891 53.9355 45.5277 53.9993 45.36 54.0001H35.9733C35.8054 53.9999 35.6438 53.9364 35.5207 53.8222C35.3976 53.708 35.3221 53.5515 35.3093 53.3841C35.1534 51.3756 34.2455 49.4999 32.7669 48.1316C31.2883 46.7633 29.3479 46.0033 27.3333 46.0033C25.3188 46.0033 23.3784 46.7633 21.8998 48.1316C20.4212 49.4999 19.5133 51.3756 19.3574 53.3841C19.344 53.5513 19.2683 53.7074 19.1454 53.8214C19.0224 53.9355 18.8611 53.9993 18.6934 54.0001H15.3334C14.9797 54.0001 14.6406 53.8596 14.3905 53.6096C14.1405 53.3595 14 53.0204 14 52.6667V20.6667C13.9785 19.6297 14.3689 18.6265 15.0857 17.8768C15.8024 17.127 16.7871 16.6919 17.824 16.6667Z" fill="#3091A7"/>
<path d="M78 49.9999C78 51.4144 77.4381 52.771 76.4379 53.7712C75.4377 54.7713 74.0812 55.3333 72.6667 55.3333H62.632C62.5389 55.3329 62.4469 55.3132 62.3618 55.2753C62.2768 55.2374 62.2006 55.1822 62.1381 55.1132C62.0756 55.0442 62.0282 54.9629 61.9989 54.8745C61.9696 54.7861 61.9591 54.6926 61.968 54.5999C61.9867 54.4026 62 54.2026 62 53.9999C61.9999 51.9849 61.2394 50.0441 59.8705 48.5654C58.5016 47.0867 56.6251 46.1791 54.616 46.0239C54.4488 46.0106 54.2927 45.9349 54.1786 45.8119C54.0646 45.689 54.0008 45.5277 54 45.3599V25.9999C54 25.2927 54.281 24.6144 54.781 24.1143C55.2811 23.6142 55.9594 23.3333 56.6667 23.3333H64.6667C68.2016 23.3375 71.5905 24.7436 74.0901 27.2432C76.5896 29.7427 77.9958 33.1317 78 36.6666V49.9999ZM64.6667 28.6666H60C59.8232 28.6666 59.6536 28.7368 59.5286 28.8618C59.4036 28.9869 59.3333 29.1564 59.3333 29.3333V35.9999C59.3333 36.1767 59.4036 36.3463 59.5286 36.4713C59.6536 36.5963 59.8232 36.6666 60 36.6666H71.9707C72.0634 36.6666 72.1551 36.6473 72.24 36.6098C72.3248 36.5724 72.4009 36.5177 72.4634 36.4492C72.5259 36.3807 72.5734 36.2999 72.6029 36.2119C72.6324 36.124 72.6432 36.0309 72.6347 35.9386C72.453 33.951 71.535 32.103 70.0607 30.7575C68.5865 29.4121 66.6626 28.6663 64.6667 28.6666Z" fill="#3091A7"/>
<path d="M54 59.3334C51.0545 59.3334 48.6666 56.9456 48.6666 54.0001C48.6666 51.0546 51.0545 48.6667 54 48.6667C56.9455 48.6667 59.3333 51.0546 59.3333 54.0001C59.3333 56.9456 56.9455 59.3334 54 59.3334Z" fill="#3091A7"/>
<path d="M27.3334 59.3334C24.3878 59.3334 22 56.9456 22 54.0001C22 51.0546 24.3878 48.6667 27.3334 48.6667C30.2789 48.6667 32.6667 51.0546 32.6667 54.0001C32.6667 56.9456 30.2789 59.3334 27.3334 59.3334Z" fill="#3091A7"/>
</g>
<path d="M4.36496 4.125H36.261C37.4275 4.15333 38.5352 4.64283 39.3416 5.48628C40.1479 6.32973 40.5871 7.45838 40.563 8.625V37.956C40.563 38.0815 40.5314 38.2051 40.4711 38.3152C40.4108 38.4253 40.3238 38.5184 40.218 38.586C39.0479 39.3308 38.0662 40.3365 37.35 41.5243C36.6338 42.712 36.2025 44.0496 36.09 45.432C36.0749 45.6201 35.9898 45.7957 35.8515 45.924C35.7131 46.0524 35.5317 46.1241 35.343 46.125H24.783C24.5941 46.1248 24.4122 46.0533 24.2737 45.9248C24.1352 45.7964 24.0503 45.6204 24.036 45.432C23.8605 43.1724 22.8391 41.0622 21.1757 39.523C19.5123 37.9837 17.3293 37.1286 15.063 37.1286C12.7966 37.1286 10.6137 37.9837 8.95025 39.523C7.28683 41.0622 6.26538 43.1724 6.08997 45.432C6.07493 45.6201 5.98982 45.7957 5.85148 45.924C5.71314 46.0524 5.53166 46.1241 5.34296 46.125H1.56296C1.16514 46.125 0.783607 45.967 0.5023 45.6857C0.220997 45.4044 0.0629616 45.0228 0.0629616 44.625V8.625C0.0388069 7.45838 0.478001 6.32973 1.28434 5.48628C2.09068 4.64283 3.19843 4.15333 4.36496 4.125Z" fill="#3091A7"/>
<path d="M72.063 41.625C72.063 43.2163 71.4308 44.7424 70.3056 45.8676C69.1804 46.9929 67.6543 47.625 66.063 47.625H54.774C54.6692 47.6246 54.5657 47.6024 54.4701 47.5598C54.3744 47.5172 54.2887 47.4551 54.2184 47.3774C54.148 47.2998 54.0947 47.2083 54.0618 47.1089C54.0288 47.0095 54.017 46.9043 54.027 46.8C54.048 46.578 54.063 46.353 54.063 46.125C54.0629 43.8581 53.2074 41.6746 51.6673 40.0111C50.1273 38.3476 48.0162 37.3266 45.756 37.152C45.5679 37.137 45.3923 37.0519 45.2639 36.9135C45.1356 36.7752 45.0639 36.5937 45.063 36.405V14.625C45.063 13.8294 45.3791 13.0663 45.9417 12.5037C46.5043 11.9411 47.2673 11.625 48.063 11.625H57.063C61.0398 11.6298 64.8523 13.2116 67.6643 16.0237C70.4763 18.8357 72.0582 22.6482 72.063 26.625V41.625ZM57.063 17.625H51.813C51.6141 17.625 51.4233 17.704 51.2827 17.8447C51.142 17.9853 51.063 18.1761 51.063 18.375V25.875C51.063 26.0739 51.142 26.2647 51.2827 26.4053C51.4233 26.546 51.6141 26.625 51.813 26.625H65.28C65.3843 26.625 65.4875 26.6033 65.5829 26.5612C65.6784 26.5191 65.764 26.4575 65.8343 26.3804C65.9046 26.3033 65.958 26.2124 65.9912 26.1135C66.0244 26.0146 66.0366 25.9099 66.027 25.806C65.8227 23.5699 64.7898 21.491 63.1313 19.9773C61.4728 18.4637 59.3084 17.6247 57.063 17.625Z" fill="#3091A7"/>
<path d="M45.063 52.125C41.7493 52.125 39.063 49.4387 39.063 46.125C39.063 42.8113 41.7493 40.125 45.063 40.125C48.3767 40.125 51.063 42.8113 51.063 46.125C51.063 49.4387 48.3767 52.125 45.063 52.125Z" fill="#3091A7"/>
<path d="M15.063 52.125C11.7493 52.125 9.06299 49.4387 9.06299 46.125C9.06299 42.8113 11.7493 40.125 15.063 40.125C18.3767 40.125 21.063 42.8113 21.063 46.125C21.063 49.4387 18.3767 52.125 15.063 52.125Z" fill="#3091A7"/>
<defs>
<clipPath id="clip0_189_1241">
<rect width="64" height="64" fill="white" transform="matrix(-1 0 0 1 78 6)"/>
</clipPath>
</defs>
</svg>
