<svg width="73" height="49" viewBox="0 0 73 49" fill="none" xmlns="http://www.w3.org/2000/svg">
<path d="M4.36496 0.125H36.261C37.4275 0.153326 38.5352 0.642825 39.3416 1.48628C40.1479 2.32973 40.5871 3.45838 40.563 4.625V33.956C40.563 34.0815 40.5314 34.2051 40.4711 34.3152C40.4108 34.4253 40.3238 34.5184 40.218 34.586C39.0479 35.3308 38.0662 36.3365 37.35 37.5243C36.6338 38.712 36.2025 40.0496 36.09 41.432C36.0749 41.6201 35.9898 41.7957 35.8515 41.924C35.7131 42.0524 35.5317 42.1241 35.343 42.125H24.783C24.5941 42.1248 24.4122 42.0533 24.2737 41.9248C24.1352 41.7964 24.0503 41.6204 24.036 41.432C23.8605 39.1724 22.8391 37.0622 21.1757 35.523C19.5123 33.9837 17.3293 33.1286 15.063 33.1286C12.7966 33.1286 10.6137 33.9837 8.95025 35.523C7.28683 37.0622 6.26538 39.1724 6.08997 41.432C6.07493 41.6201 5.98982 41.7957 5.85148 41.924C5.71314 42.0524 5.53166 42.1241 5.34296 42.125H1.56296C1.16514 42.125 0.783607 41.967 0.5023 41.6857C0.220997 41.4044 0.0629616 41.0228 0.0629616 40.625V4.625C0.0388069 3.45838 0.478001 2.32973 1.28434 1.48628C2.09068 0.642825 3.19843 0.153326 4.36496 0.125Z" fill="#3091A7"/>
<path d="M72.063 37.625C72.063 39.2163 71.4308 40.7424 70.3056 41.8676C69.1804 42.9929 67.6543 43.625 66.063 43.625H54.774C54.6692 43.6246 54.5657 43.6024 54.4701 43.5598C54.3744 43.5172 54.2887 43.4551 54.2184 43.3774C54.148 43.2998 54.0947 43.2083 54.0618 43.1089C54.0288 43.0095 54.017 42.9043 54.027 42.8C54.048 42.578 54.063 42.353 54.063 42.125C54.0629 39.8581 53.2074 37.6746 51.6673 36.0111C50.1273 34.3476 48.0162 33.3266 45.756 33.152C45.5679 33.137 45.3923 33.0519 45.2639 32.9135C45.1356 32.7752 45.0639 32.5937 45.063 32.405V10.625C45.063 9.82935 45.3791 9.06629 45.9417 8.50368C46.5043 7.94107 47.2673 7.625 48.063 7.625H57.063C61.0398 7.62976 64.8523 9.21165 67.6643 12.0237C70.4763 14.8357 72.0582 18.6482 72.063 22.625V37.625ZM57.063 13.625H51.813C51.6141 13.625 51.4233 13.704 51.2827 13.8447C51.142 13.9853 51.063 14.1761 51.063 14.375V21.875C51.063 22.0739 51.142 22.2647 51.2827 22.4053C51.4233 22.546 51.6141 22.625 51.813 22.625H65.28C65.3843 22.625 65.4875 22.6033 65.5829 22.5612C65.6784 22.5191 65.764 22.4575 65.8343 22.3804C65.9046 22.3033 65.958 22.2124 65.9912 22.1135C66.0244 22.0146 66.0366 21.9099 66.027 21.806C65.8227 19.5699 64.7898 17.491 63.1313 15.9773C61.4728 14.4637 59.3084 13.6247 57.063 13.625Z" fill="#3091A7"/>
<path d="M45.063 48.125C41.7493 48.125 39.063 45.4387 39.063 42.125C39.063 38.8113 41.7493 36.125 45.063 36.125C48.3767 36.125 51.063 38.8113 51.063 42.125C51.063 45.4387 48.3767 48.125 45.063 48.125Z" fill="#3091A7"/>
<path d="M15.063 48.125C11.7493 48.125 9.06299 45.4387 9.06299 42.125C9.06299 38.8113 11.7493 36.125 15.063 36.125C18.3767 36.125 21.063 38.8113 21.063 42.125C21.063 45.4387 18.3767 48.125 15.063 48.125Z" fill="#3091A7"/>
</svg>
