<svg width="65" height="63" viewBox="0 0 65 63" fill="none" xmlns="http://www.w3.org/2000/svg">
<path d="M64.4958 37.3333C64.4965 34.8528 63.7273 32.4332 62.2944 30.4085C60.8614 28.3837 58.8354 26.8536 56.4958 26.0293V24C56.4958 17.6348 53.9672 11.5303 49.4664 7.02944C44.9655 2.52856 38.861 0 32.4958 0C26.1306 0 20.0261 2.52856 15.5252 7.02944C11.0244 11.5303 8.4958 17.6348 8.4958 24V26.0293C6.15828 26.8578 4.13485 28.3901 2.7038 30.4155C1.27276 32.441 0.504395 34.86 0.504395 37.34C0.504395 39.82 1.27276 42.239 2.7038 44.2645C4.13485 46.2899 6.15828 47.8222 8.4958 48.6507C9.09908 48.864 9.74473 48.9294 10.3785 48.8415C11.0123 48.7536 11.6158 48.515 12.1383 48.1456C12.6608 47.7762 13.087 47.2868 13.3812 46.7186C13.6754 46.1504 13.829 45.5199 13.8291 44.88V24C13.8291 21.5487 14.312 19.1213 15.25 16.8566C16.1881 14.5918 17.5631 12.534 19.2965 10.8007C21.0298 9.06731 23.0876 7.69234 25.3524 6.75425C27.6171 5.81616 30.0445 5.33333 32.4958 5.33333C34.9471 5.33333 37.3745 5.81616 39.6392 6.75425C41.904 7.69234 43.9618 9.06731 45.6951 10.8007C47.4285 12.534 48.8035 14.5918 49.7416 16.8566C50.6796 19.1213 51.1625 21.5487 51.1625 24V44.88C51.1682 45.4348 51.2898 45.9824 51.5194 46.4875C51.749 46.9926 52.0815 47.4442 52.4958 47.8133V49.3333C52.4958 53.264 49.0531 54.6667 45.8291 54.6667H41.0878C40.5008 53.6499 39.5947 52.8553 38.51 52.406C37.4253 51.9567 36.2227 51.8779 35.0886 52.1817C33.9546 52.4856 32.9525 53.1552 32.2378 54.0866C31.5231 55.018 31.1357 56.1593 31.1357 57.3333C31.1357 58.5074 31.5231 59.6486 32.2378 60.5801C32.9525 61.5115 33.9546 62.1811 35.0886 62.4849C36.2227 62.7888 37.4253 62.71 38.51 62.2607C39.5947 61.8114 40.5008 61.0168 41.0878 60H45.8291C52.8958 60 57.8291 55.6133 57.8291 49.3333V48.0587C59.8274 47.0672 61.5098 45.5384 62.6874 43.6439C63.8651 41.7493 64.4913 39.564 64.4958 37.3333Z" fill="#004E89"/>
<path d="M40.8798 37.4532C41.0825 37.1433 41.3594 36.8891 41.6855 36.7135C42.0115 36.5379 42.3762 36.4466 42.7465 36.4479C43.1766 36.4467 43.5976 36.5718 43.9571 36.8079C44.202 36.9672 44.413 37.1732 44.5781 37.4142C44.7433 37.6551 44.8592 37.9263 44.9194 38.2121C44.9796 38.498 44.9829 38.7929 44.9289 39.08C44.875 39.3671 44.765 39.6407 44.6051 39.8852C43.2927 41.9003 41.4981 43.5559 39.384 44.7019C37.2699 45.848 34.9032 46.4482 32.4985 46.4482C30.0937 46.4482 27.727 45.848 25.6129 44.7019C23.4988 43.5559 21.7042 41.9003 20.3918 39.8852C20.0693 39.3901 19.9567 38.7872 20.0787 38.2091C20.2007 37.631 20.5474 37.1251 21.0425 36.8025C21.5375 36.48 22.1404 36.3674 22.7186 36.4894C23.2967 36.6115 23.8026 36.9581 24.1251 37.4532C25.0331 38.8498 26.2756 39.9975 27.7397 40.792C29.2039 41.5865 30.8433 42.0027 32.5091 42.0027C34.175 42.0027 35.8144 41.5865 37.2785 40.792C38.7427 39.9975 39.9852 38.8498 40.8931 37.4532H40.8798Z" fill="#004E89"/>
<path d="M23.6078 29.7813C26.0629 29.7813 28.0531 27.791 28.0531 25.336C28.0531 22.8809 26.0629 20.8906 23.6078 20.8906C21.1527 20.8906 19.1625 22.8809 19.1625 25.336C19.1625 27.791 21.1527 29.7813 23.6078 29.7813Z" fill="#004E89"/>
<path d="M41.3838 29.7813C43.8389 29.7813 45.8291 27.791 45.8291 25.336C45.8291 22.8809 43.8389 20.8906 41.3838 20.8906C38.9287 20.8906 36.9385 22.8809 36.9385 25.336C36.9385 27.791 38.9287 29.7813 41.3838 29.7813Z" fill="#004E89"/>
</svg>
