<svg width="74" height="71" viewBox="0 0 74 71" fill="none" xmlns="http://www.w3.org/2000/svg">
<g opacity="0.2" clip-path="url(#clip0_189_1256)">
<path d="M62.8333 12.3333C62.8333 10.9188 62.2714 9.56229 61.2712 8.5621C60.271 7.5619 58.9145 7 57.5 7H14.8333C13.4188 7 12.0623 7.5619 11.0621 8.5621C10.0619 9.56229 9.5 10.9188 9.5 12.3333L9.5 15C9.5 15.1768 9.57024 15.3464 9.69526 15.4714C9.82029 15.5964 9.98986 15.6667 10.1667 15.6667H62.1667C62.3435 15.6667 62.513 15.5964 62.6381 15.4714C62.7631 15.3464 62.8333 15.1768 62.8333 15V12.3333Z" fill="#FF5A5F"/>
<path d="M45.2333 42.0374C45.331 41.9874 45.4148 41.914 45.4771 41.8237C45.5395 41.7334 45.5785 41.6291 45.5907 41.5201C45.9585 38.2634 47.5113 35.2558 49.9533 33.07C52.3953 30.8842 55.556 29.6729 58.8333 29.6667C59.9024 29.6743 60.9662 29.8186 61.9987 30.0961C62.0973 30.1218 62.2004 30.1245 62.3002 30.1041C62.4 30.0837 62.4938 30.0407 62.5744 29.9783C62.655 29.916 62.7203 29.8361 62.7652 29.7446C62.81 29.6532 62.8334 29.5526 62.8333 29.4507V20.3334C62.8333 20.1566 62.7631 19.987 62.6381 19.862C62.513 19.737 62.3435 19.6667 62.1667 19.6667H10.1667C9.98986 19.6667 9.82029 19.737 9.69526 19.862C9.57024 19.987 9.5 20.1566 9.5 20.3334V41.6667C9.5 43.0812 10.0619 44.4378 11.0621 45.438C12.0623 46.4382 13.4188 47.0001 14.8333 47.0001H40.3587C40.4887 47.0002 40.616 46.9624 40.7249 46.8914C40.8338 46.8204 40.9197 46.7191 40.972 46.6001C41.8286 44.6364 43.3327 43.026 45.2333 42.0374ZM25.5 39.6667H17.5C16.9696 39.6667 16.4609 39.456 16.0858 39.081C15.7107 38.7059 15.5 38.1972 15.5 37.6667C15.5 37.1363 15.7107 36.6276 16.0858 36.2525C16.4609 35.8775 16.9696 35.6667 17.5 35.6667H25.5C26.0304 35.6667 26.5391 35.8775 26.9142 36.2525C27.2893 36.6276 27.5 37.1363 27.5 37.6667C27.5 38.1972 27.2893 38.7059 26.9142 39.081C26.5391 39.456 26.0304 39.6667 25.5 39.6667ZM34.8333 30.3334H17.5C16.9696 30.3334 16.4609 30.1227 16.0858 29.7476C15.7107 29.3726 15.5 28.8638 15.5 28.3334C15.5 27.803 15.7107 27.2943 16.0858 26.9192C16.4609 26.5441 16.9696 26.3334 17.5 26.3334H34.8333C35.3638 26.3334 35.8725 26.5441 36.2475 26.9192C36.6226 27.2943 36.8333 27.803 36.8333 28.3334C36.8333 28.8638 36.6226 29.3726 36.2475 29.7476C35.8725 30.1227 35.3638 30.3334 34.8333 30.3334Z" fill="#FF5A5F"/>
<path d="M70.0707 48.3734C69.9121 48.3509 69.767 48.2718 69.6622 48.1508C69.5573 48.0298 69.4997 47.8749 69.5 47.7147V45.0001C69.5 42.5247 68.5167 40.1508 66.7663 38.4004C65.016 36.6501 62.642 35.6667 60.1667 35.6667C57.6913 35.6667 55.3174 36.6501 53.567 38.4004C51.8167 40.1508 50.8333 42.5247 50.8333 45.0001V47.7147C50.8336 47.8749 50.7761 48.0298 50.6712 48.1508C50.5663 48.2718 50.4212 48.3509 50.2627 48.3734C49.3104 48.5107 48.4394 48.9866 47.8096 49.7139C47.1797 50.4413 46.8331 51.3713 46.8333 52.3334V67.0001C46.8333 68.0609 47.2548 69.0784 48.0049 69.8285C48.7551 70.5787 49.7725 71.0001 50.8333 71.0001H69.5C70.5609 71.0001 71.5783 70.5787 72.3284 69.8285C73.0786 69.0784 73.5 68.0609 73.5 67.0001V52.3334C73.5002 51.3713 73.1536 50.4413 72.5238 49.7139C71.8939 48.9866 71.023 48.5107 70.0707 48.3734ZM60.1667 41.0001C61.2275 41.0001 62.245 41.4215 62.9951 42.1717C63.7452 42.9218 64.1667 43.9392 64.1667 45.0001V47.6667C64.1667 47.8436 64.0964 48.0131 63.9714 48.1382C63.8464 48.2632 63.6768 48.3334 63.5 48.3334H56.8333C56.6565 48.3334 56.487 48.2632 56.3619 48.1382C56.2369 48.0131 56.1667 47.8436 56.1667 47.6667V45.0001C56.1667 43.9392 56.5881 42.9218 57.3383 42.1717C58.0884 41.4215 59.1058 41.0001 60.1667 41.0001ZM62.8333 61.0001C62.8333 61.5275 62.6769 62.0431 62.3839 62.4816C62.0909 62.9201 61.6744 63.2619 61.1872 63.4638C60.6999 63.6656 60.1637 63.7184 59.6464 63.6155C59.1292 63.5126 58.654 63.2586 58.2811 62.8857C57.9081 62.5128 57.6541 62.0376 57.5512 61.5203C57.4484 61.003 57.5012 60.4669 57.703 59.9796C57.9048 59.4923 58.2466 59.0758 58.6852 58.7828C59.1237 58.4898 59.6393 58.3334 60.1667 58.3334C60.8739 58.3334 61.5522 58.6144 62.0523 59.1145C62.5524 59.6146 62.8333 60.2928 62.8333 61.0001Z" fill="#FF5A5F"/>
</g>
<path d="M53.8333 5.33333C53.8333 3.91885 53.2714 2.56229 52.2712 1.5621C51.271 0.561903 49.9145 0 48.5 0L5.83333 0C4.41885 0 3.06229 0.561903 2.0621 1.5621C1.0619 2.56229 0.5 3.91885 0.5 5.33333L0.5 8C0.5 8.17681 0.570238 8.34638 0.695262 8.47141C0.820286 8.59643 0.989856 8.66667 1.16667 8.66667H53.1667C53.3435 8.66667 53.513 8.59643 53.6381 8.47141C53.7631 8.34638 53.8333 8.17681 53.8333 8V5.33333Z" fill="#FF5A5F"/>
<path d="M36.2333 35.0374C36.331 34.9874 36.4148 34.914 36.4771 34.8237C36.5395 34.7334 36.5785 34.6291 36.5907 34.5201C36.9585 31.2634 38.5113 28.2558 40.9533 26.07C43.3953 23.8842 46.556 22.6729 49.8333 22.6667C50.9024 22.6743 51.9662 22.8186 52.9987 23.0961C53.0973 23.1218 53.2004 23.1245 53.3002 23.1041C53.4 23.0837 53.4938 23.0407 53.5744 22.9783C53.655 22.916 53.7203 22.8361 53.7652 22.7446C53.81 22.6532 53.8334 22.5526 53.8333 22.4507V13.3334C53.8333 13.1566 53.7631 12.987 53.6381 12.862C53.513 12.737 53.3435 12.6667 53.1667 12.6667H1.16667C0.989856 12.6667 0.820286 12.737 0.695262 12.862C0.570238 12.987 0.5 13.1566 0.5 13.3334L0.5 34.6667C0.5 36.0812 1.0619 37.4378 2.0621 38.438C3.06229 39.4382 4.41885 40.0001 5.83333 40.0001H31.3587C31.4887 40.0002 31.616 39.9624 31.7249 39.8914C31.8338 39.8204 31.9197 39.7191 31.972 39.6001C32.8286 37.6364 34.3327 36.026 36.2333 35.0374ZM16.5 32.6667H8.5C7.96957 32.6667 7.46086 32.456 7.08579 32.081C6.71071 31.7059 6.5 31.1972 6.5 30.6667C6.5 30.1363 6.71071 29.6276 7.08579 29.2525C7.46086 28.8775 7.96957 28.6667 8.5 28.6667H16.5C17.0304 28.6667 17.5391 28.8775 17.9142 29.2525C18.2893 29.6276 18.5 30.1363 18.5 30.6667C18.5 31.1972 18.2893 31.7059 17.9142 32.081C17.5391 32.456 17.0304 32.6667 16.5 32.6667ZM25.8333 23.3334H8.5C7.96957 23.3334 7.46086 23.1227 7.08579 22.7476C6.71071 22.3726 6.5 21.8638 6.5 21.3334C6.5 20.803 6.71071 20.2943 7.08579 19.9192C7.46086 19.5441 7.96957 19.3334 8.5 19.3334H25.8333C26.3638 19.3334 26.8725 19.5441 27.2475 19.9192C27.6226 20.2943 27.8333 20.803 27.8333 21.3334C27.8333 21.8638 27.6226 22.3726 27.2475 22.7476C26.8725 23.1227 26.3638 23.3334 25.8333 23.3334Z" fill="#FF5A5F"/>
<path d="M61.0707 41.3734C60.9121 41.3509 60.767 41.2718 60.6622 41.1508C60.5573 41.0298 60.4997 40.8749 60.5 40.7147V38.0001C60.5 35.5247 59.5167 33.1508 57.7663 31.4004C56.016 29.6501 53.642 28.6667 51.1667 28.6667C48.6913 28.6667 46.3174 29.6501 44.567 31.4004C42.8167 33.1508 41.8333 35.5247 41.8333 38.0001V40.7147C41.8336 40.8749 41.7761 41.0298 41.6712 41.1508C41.5663 41.2718 41.4212 41.3509 41.2627 41.3734C40.3104 41.5107 39.4394 41.9866 38.8096 42.7139C38.1797 43.4413 37.8331 44.3713 37.8333 45.3334V60.0001C37.8333 61.0609 38.2548 62.0784 39.0049 62.8285C39.7551 63.5787 40.7725 64.0001 41.8333 64.0001H60.5C61.5609 64.0001 62.5783 63.5787 63.3284 62.8285C64.0786 62.0784 64.5 61.0609 64.5 60.0001V45.3334C64.5002 44.3713 64.1536 43.4413 63.5238 42.7139C62.8939 41.9866 62.023 41.5107 61.0707 41.3734ZM51.1667 34.0001C52.2275 34.0001 53.245 34.4215 53.9951 35.1717C54.7452 35.9218 55.1667 36.9392 55.1667 38.0001V40.6667C55.1667 40.8436 55.0964 41.0131 54.9714 41.1382C54.8464 41.2632 54.6768 41.3334 54.5 41.3334H47.8333C47.6565 41.3334 47.487 41.2632 47.3619 41.1382C47.2369 41.0131 47.1667 40.8436 47.1667 40.6667V38.0001C47.1667 36.9392 47.5881 35.9218 48.3383 35.1717C49.0884 34.4215 50.1058 34.0001 51.1667 34.0001ZM53.8333 54.0001C53.8333 54.5275 53.6769 55.0431 53.3839 55.4816C53.0909 55.9201 52.6744 56.2619 52.1872 56.4638C51.6999 56.6656 51.1637 56.7184 50.6464 56.6155C50.1292 56.5126 49.654 56.2586 49.2811 55.8857C48.9081 55.5128 48.6541 55.0376 48.5512 54.5203C48.4484 54.003 48.5012 53.4669 48.703 52.9796C48.9048 52.4923 49.2466 52.0758 49.6852 51.7828C50.1237 51.4898 50.6393 51.3334 51.1667 51.3334C51.8739 51.3334 52.5522 51.6144 53.0523 52.1145C53.5524 52.6146 53.8333 53.2928 53.8333 54.0001Z" fill="#FF5A5F"/>
<defs>
<clipPath id="clip0_189_1256">
<rect width="64" height="64" fill="white" transform="translate(9.5 7)"/>
</clipPath>
</defs>
</svg>
