<svg width="24" height="24" viewBox="0 0 24 24" fill="none" xmlns="http://www.w3.org/2000/svg">
<g clip-path="url(#clip0_692_6988)">
<path d="M16.0039 15.5C20.146 15.5 23.5039 12.1421 23.5039 8C23.5039 3.85786 20.146 0.5 16.0039 0.5C11.8618 0.5 8.50391 3.85786 8.50391 8C8.50391 12.1421 11.8618 15.5 16.0039 15.5Z" stroke="#126A3A" stroke-linecap="round" stroke-linejoin="round"/>
<path d="M8.53008 8.52671C7.00515 8.41826 5.48349 8.77842 4.16896 9.55894C2.85443 10.3395 1.80982 11.503 1.17507 12.8938C0.540322 14.2846 0.345751 15.8362 0.617424 17.3406C0.889098 18.8451 1.61404 20.2306 2.69513 21.3115C3.77623 22.3924 5.16183 23.1172 6.66632 23.3886C8.17082 23.6601 9.72233 23.4653 11.113 22.8303C12.5037 22.1954 13.6672 21.1506 14.4475 19.836C15.2278 18.5213 15.5877 16.9996 15.4791 15.4747" stroke="#031009" stroke-linecap="round" stroke-linejoin="round"/>
<path d="M0.984375 5.03544L2.99038 7.02844L4.98438 5.02344" stroke="#031009" stroke-linecap="round" stroke-linejoin="round"/>
<path d="M7.9733 1.01367C7.31669 1.01564 6.6669 1.14692 6.06102 1.40001C5.45515 1.6531 4.90506 2.02305 4.44216 2.48874C3.97926 2.95442 3.61261 3.50673 3.36316 4.11411C3.11371 4.72149 2.98633 5.37206 2.9883 6.02867V7.02867" stroke="#031009" stroke-linecap="round" stroke-linejoin="round"/>
<path d="M23.0234 18.9657L21.0174 16.9727L19.0234 18.9777" stroke="#031009" stroke-linecap="round" stroke-linejoin="round"/>
<path d="M16.0352 22.9877C16.6918 22.9857 17.3416 22.8544 17.9474 22.6013C18.5533 22.3482 19.1034 21.9783 19.5663 21.5126C20.0292 21.0469 20.3958 20.4946 20.6453 19.8872C20.8948 19.2798 21.0221 18.6293 21.0202 17.9727V16.9727" stroke="#031009" stroke-linecap="round" stroke-linejoin="round"/>
<path d="M8.50034 19.5003C8.09503 19.5472 7.68438 19.5018 7.29908 19.3676C6.91377 19.2334 6.56379 19.0139 6.27528 18.7254C5.98678 18.4369 5.76723 18.0869 5.63303 17.7016C5.49884 17.3163 5.45348 16.9056 5.50034 16.5003C5.45348 16.095 5.49884 15.6844 5.63303 15.2991C5.76723 14.9138 5.98678 14.5638 6.27528 14.2753C6.56379 13.9868 6.91377 13.7672 7.29908 13.633C7.68438 13.4988 8.09503 13.4535 8.50034 13.5003" stroke="#031009" stroke-linecap="round" stroke-linejoin="round"/>
<path d="M4.50391 15.5H8.50391" stroke="#031009" stroke-linecap="round" stroke-linejoin="round"/>
<path d="M4.50391 17.5H7.50391" stroke="#031009" stroke-linecap="round" stroke-linejoin="round"/>
<path d="M17.5002 4.50004H15.8002C15.5196 4.49788 15.2457 4.58662 15.0196 4.75302C14.7936 4.91941 14.6274 5.1545 14.5461 5.42315C14.4647 5.6918 14.4725 5.97957 14.5682 6.24343C14.6639 6.5073 14.8425 6.73309 15.0772 6.88704L16.9172 8.11304C17.1515 8.26671 17.3299 8.49196 17.4257 8.75523C17.5216 9.0185 17.5299 9.30569 17.4493 9.57403C17.3687 9.84236 17.2035 10.0775 16.9785 10.2443C16.7534 10.4112 16.4804 10.5009 16.2003 10.5H14.5002" stroke="#031009" stroke-linecap="round" stroke-linejoin="round"/>
<path d="M16.5039 4.5V3.5" stroke="#031009" stroke-linecap="round" stroke-linejoin="round"/>
<path d="M15.5039 11.5V10.5" stroke="#031009" stroke-linecap="round" stroke-linejoin="round"/>
</g>
<defs>
<clipPath id="clip0_692_6988">
<rect width="24" height="24" fill="white"/>
</clipPath>
</defs>
</svg>
