<svg width="24" height="24" viewBox="0 0 24 24" fill="none" xmlns="http://www.w3.org/2000/svg">
<g clip-path="url(#clip0_692_6966)">
<path d="M4 11.5C4 9.37827 4.84285 7.34344 6.34315 5.84315C7.84344 4.34285 9.87827 3.5 12 3.5C14.1217 3.5 16.1566 4.34285 17.6569 5.84315C19.1571 7.34344 20 9.37827 20 11.5V18C20 18.3978 20.158 18.7794 20.4393 19.0607C20.7206 19.342 21.1022 19.5 21.5 19.5H2.5C2.89782 19.5 3.27936 19.342 3.56066 19.0607C3.84196 18.7794 4 18.3978 4 18V11.5Z" stroke="#126A3A" stroke-linecap="round" stroke-linejoin="round"/>
<path d="M12 0.501953V3.50195" stroke="#031009" stroke-linecap="round" stroke-linejoin="round"/>
<path d="M14.4508 21.5C14.336 22.0651 14.0294 22.5732 13.5829 22.9382C13.1364 23.3031 12.5775 23.5025 12.0008 23.5025C11.4241 23.5025 10.8652 23.3031 10.4187 22.9382C9.97215 22.5732 9.66554 22.0651 9.55078 21.5" stroke="#031009" stroke-linecap="round" stroke-linejoin="round"/>
<path d="M14.5 6.96875C15.2507 7.34122 15.8825 7.91592 16.3242 8.62812C16.7659 9.34031 17 10.1617 17 10.9998" stroke="#031009" stroke-linecap="round" stroke-linejoin="round"/>
</g>
<defs>
<clipPath id="clip0_692_6966">
<rect width="24" height="24" fill="white"/>
</clipPath>
</defs>
</svg>
