<svg width="24" height="24" viewBox="0 0 24 24" fill="none" xmlns="http://www.w3.org/2000/svg">
<g clip-path="url(#clip0_692_7090)">
<path d="M8.5 13C8.45055 13 8.40222 13.0147 8.36111 13.0421C8.32 13.0696 8.28795 13.1086 8.26903 13.1543C8.25011 13.2 8.24516 13.2503 8.2548 13.2988C8.26445 13.3473 8.28826 13.3918 8.32322 13.4268C8.35819 13.4617 8.40273 13.4856 8.45123 13.4952C8.49972 13.5048 8.54999 13.4999 8.59567 13.481C8.64135 13.462 8.6804 13.43 8.70787 13.3889C8.73534 13.3478 8.75 13.2994 8.75 13.25C8.75 13.1837 8.72366 13.1201 8.67678 13.0732C8.62989 13.0263 8.5663 13 8.5 13Z" stroke="#031009" stroke-linecap="round" stroke-linejoin="round"/>
<path d="M12 13C11.9506 13 11.9022 13.0147 11.8611 13.0421C11.82 13.0696 11.788 13.1086 11.769 13.1543C11.7501 13.2 11.7452 13.2503 11.7548 13.2988C11.7644 13.3473 11.7883 13.3918 11.8232 13.4268C11.8582 13.4617 11.9027 13.4856 11.9512 13.4952C11.9997 13.5048 12.05 13.4999 12.0957 13.481C12.1414 13.462 12.1804 13.43 12.2079 13.3889C12.2353 13.3478 12.25 13.2994 12.25 13.25C12.25 13.1837 12.2237 13.1201 12.1768 13.0732C12.1299 13.0263 12.0663 13 12 13Z" stroke="#031009" stroke-linecap="round" stroke-linejoin="round"/>
<path d="M15.5 13C15.4506 13 15.4022 13.0147 15.3611 13.0421C15.32 13.0696 15.288 13.1086 15.269 13.1543C15.2501 13.2 15.2452 13.2503 15.2548 13.2988C15.2644 13.3473 15.2883 13.3918 15.3232 13.4268C15.3582 13.4617 15.4027 13.4856 15.4512 13.4952C15.4997 13.5048 15.55 13.4999 15.5957 13.481C15.6414 13.462 15.6804 13.43 15.7079 13.3889C15.7353 13.3478 15.75 13.2994 15.75 13.25C15.75 13.1837 15.7237 13.1201 15.6768 13.0732C15.6299 13.0263 15.5663 13 15.5 13Z" stroke="#031009" stroke-linecap="round" stroke-linejoin="round"/>
<path d="M8.5 16.5C8.45055 16.5 8.40222 16.5147 8.36111 16.5421C8.32 16.5696 8.28795 16.6086 8.26903 16.6543C8.25011 16.7 8.24516 16.7503 8.2548 16.7988C8.26445 16.8473 8.28826 16.8918 8.32322 16.9268C8.35819 16.9617 8.40273 16.9855 8.45123 16.9952C8.49972 17.0048 8.54999 16.9999 8.59567 16.981C8.64135 16.962 8.6804 16.93 8.70787 16.8889C8.73534 16.8478 8.75 16.7994 8.75 16.75C8.75 16.6837 8.72366 16.6201 8.67678 16.5732C8.62989 16.5263 8.5663 16.5 8.5 16.5Z" stroke="#031009" stroke-linecap="round" stroke-linejoin="round"/>
<path d="M12 16.5C11.9506 16.5 11.9022 16.5147 11.8611 16.5421C11.82 16.5696 11.788 16.6086 11.769 16.6543C11.7501 16.7 11.7452 16.7503 11.7548 16.7988C11.7644 16.8473 11.7883 16.8918 11.8232 16.9268C11.8582 16.9617 11.9027 16.9855 11.9512 16.9952C11.9997 17.0048 12.05 16.9999 12.0957 16.981C12.1414 16.962 12.1804 16.93 12.2079 16.8889C12.2353 16.8478 12.25 16.7994 12.25 16.75C12.25 16.6837 12.2237 16.6201 12.1768 16.5732C12.1299 16.5263 12.0663 16.5 12 16.5Z" stroke="#031009" stroke-linecap="round" stroke-linejoin="round"/>
<path d="M15.5 16.5C15.4506 16.5 15.4022 16.5147 15.3611 16.5421C15.32 16.5696 15.288 16.6086 15.269 16.6543C15.2501 16.7 15.2452 16.7503 15.2548 16.7988C15.2644 16.8473 15.2883 16.8918 15.3232 16.9268C15.3582 16.9617 15.4027 16.9855 15.4512 16.9952C15.4997 17.0048 15.55 16.9999 15.5957 16.981C15.6414 16.962 15.6804 16.93 15.7079 16.8889C15.7353 16.8478 15.75 16.7994 15.75 16.75C15.75 16.6837 15.7237 16.6201 15.6768 16.5732C15.6299 16.5263 15.5663 16.5 15.5 16.5Z" stroke="#031009" stroke-linecap="round" stroke-linejoin="round"/>
<path d="M8.5 20C8.45055 20 8.40222 20.0147 8.36111 20.0421C8.32 20.0696 8.28795 20.1086 8.26903 20.1543C8.25011 20.2 8.24516 20.2503 8.2548 20.2988C8.26445 20.3473 8.28826 20.3918 8.32322 20.4268C8.35819 20.4617 8.40273 20.4855 8.45123 20.4952C8.49972 20.5048 8.54999 20.4999 8.59567 20.481C8.64135 20.462 8.6804 20.43 8.70787 20.3889C8.73534 20.3478 8.75 20.2994 8.75 20.25C8.75 20.1837 8.72366 20.1201 8.67678 20.0732C8.62989 20.0263 8.5663 20 8.5 20Z" stroke="#031009" stroke-linecap="round" stroke-linejoin="round"/>
<path d="M12 20C11.9506 20 11.9022 20.0147 11.8611 20.0421C11.82 20.0696 11.788 20.1086 11.769 20.1543C11.7501 20.2 11.7452 20.2503 11.7548 20.2988C11.7644 20.3473 11.7883 20.3918 11.8232 20.4268C11.8582 20.4617 11.9027 20.4855 11.9512 20.4952C11.9997 20.5048 12.05 20.4999 12.0957 20.481C12.1414 20.462 12.1804 20.43 12.2079 20.3889C12.2353 20.3478 12.25 20.2994 12.25 20.25C12.25 20.1837 12.2237 20.1201 12.1768 20.0732C12.1299 20.0263 12.0663 20 12 20Z" stroke="#031009" stroke-linecap="round" stroke-linejoin="round"/>
<path d="M15.5 20C15.4506 20 15.4022 20.0147 15.3611 20.0421C15.32 20.0696 15.288 20.1086 15.269 20.1543C15.2501 20.2 15.2452 20.2503 15.2548 20.2988C15.2644 20.3473 15.2883 20.3918 15.3232 20.4268C15.3582 20.4617 15.4027 20.4855 15.4512 20.4952C15.4997 20.5048 15.55 20.4999 15.5957 20.481C15.6414 20.462 15.6804 20.43 15.7079 20.3889C15.7353 20.3478 15.75 20.2994 15.75 20.25C15.75 20.1837 15.7237 20.1201 15.6768 20.0732C15.6299 20.0263 15.5663 20 15.5 20Z" stroke="#031009" stroke-linecap="round" stroke-linejoin="round"/>
<path d="M20.5 10.5C20.5 10.2348 20.3946 9.98043 20.2071 9.79289C20.0196 9.60536 19.7652 9.5 19.5 9.5H4.5C4.23478 9.5 3.98043 9.60536 3.79289 9.79289C3.60536 9.98043 3.5 10.2348 3.5 10.5V22.5C3.5 22.7652 3.60536 23.0196 3.79289 23.2071C3.98043 23.3946 4.23478 23.5 4.5 23.5H19.5C19.7652 23.5 20.0196 23.3946 20.2071 23.2071C20.3946 23.0196 20.5 22.7652 20.5 22.5V10.5Z" stroke="#031009" stroke-linecap="round" stroke-linejoin="round"/>
<path d="M6.5 6C6.5 4.54131 7.07946 3.14236 8.11091 2.11091C9.14236 1.07946 10.5413 0.5 12 0.5C13.4587 0.5 14.8576 1.07946 15.8891 2.11091C16.9205 3.14236 17.5 4.54131 17.5 6V9.5H6.5V6Z" stroke="#031009" stroke-linecap="round" stroke-linejoin="round"/>
</g>
<defs>
<clipPath id="clip0_692_7090">
<rect width="24" height="24" fill="white"/>
</clipPath>
</defs>
</svg>
