<svg width="24" height="24" viewBox="0 0 24 24" fill="none" xmlns="http://www.w3.org/2000/svg">
<mask id="path-1-inside-1_692_6961" fill="white">
<path d="M17.604 2.20462e-05C17.4488 -0.00157795 17.3064 0.0840221 17.2376 0.220822L15.48 3.72482L11.544 4.28482C11.2136 4.33282 11.0816 4.73282 11.3216 4.96162L14.3656 7.68722L13.6032 11.5352C13.5472 11.86 13.8936 12.1072 14.1896 11.9536L17.6 10.136L21.0288 11.9544C21.3248 12.1064 21.6688 11.86 21.6144 11.5368L20.8608 7.68882L23.8768 4.96242C24.1168 4.73362 23.9856 4.33282 23.6544 4.28562L19.7216 3.72562L17.9616 0.221622C17.8944 0.0880221 17.756 0.00162205 17.604 2.20462e-05ZM17.6 1.29202L19.0904 4.26002C19.1488 4.37842 19.2632 4.46002 19.3944 4.47842L22.7288 4.95442L20.1472 7.26642C20.0512 7.35602 20.0088 7.48722 20.0312 7.61522L20.6816 10.8792L17.7888 9.33762C17.6712 9.27682 17.5312 9.27682 17.4128 9.33762L14.5408 10.8784L15.1992 7.61442C15.2216 7.48642 15.1776 7.35442 15.0832 7.26402L12.4736 4.95202L15.8064 4.47682C15.9384 4.45842 16.052 4.37682 16.1104 4.25922L17.6 1.29202ZM13.2 14.4C12.5424 14.4 12 14.9424 12 15.6V22.8C12 23.4576 12.5424 24 13.2 24H20.4C21.0576 24 21.6 23.4576 21.6 22.8V15.6C21.6 14.9424 21.0576 14.4 20.4 14.4H13.2ZM13.2 15.2H20.4C20.6288 15.2 20.8 15.3712 20.8 15.6V22.8C20.8 23.0288 20.6288 23.2 20.4 23.2H13.2C12.9712 23.2 12.8 23.0288 12.8 22.8V15.6C12.8 15.3712 12.9712 15.2 13.2 15.2ZM1.2 2.40002C0.5424 2.40002 0 2.94242 0 3.60002V10.8C0 11.4576 0.5424 12 1.2 12H8.4C9.0576 12 9.6 11.4576 9.6 10.8V3.60002C9.6 2.94242 9.0576 2.40002 8.4 2.40002H1.2ZM1.2 3.20002H8.4C8.6288 3.20002 8.8 3.37122 8.8 3.60002V10.8C8.8 11.0288 8.6288 11.2 8.4 11.2H1.2C0.9712 11.2 0.8 11.0288 0.8 10.8V3.60002C0.8 3.37122 0.9712 3.20002 1.2 3.20002ZM1.2 14.4C0.5424 14.4 0 14.9424 0 15.6V22.8C0 23.4576 0.5424 24 1.2 24H8.4C9.0576 24 9.6 23.4576 9.6 22.8V15.6C9.6 14.9424 9.0576 14.4 8.4 14.4H1.2ZM1.2 15.2H8.4C8.6288 15.2 8.8 15.3712 8.8 15.6V22.8C8.8 23.0288 8.6288 23.2 8.4 23.2H1.2C0.9712 23.2 0.8 23.0288 0.8 22.8V15.6C0.8 15.3712 0.9712 15.2 1.2 15.2Z"/>
</mask>
<path d="M17.604 2.20462e-05L17.6145 -0.999923L17.6143 -0.999925L17.604 2.20462e-05ZM17.2376 0.220822L16.3442 -0.22848L16.3437 -0.227534L17.2376 0.220822ZM15.48 3.72482L15.6209 4.71485L16.1391 4.64111L16.3739 4.17318L15.48 3.72482ZM11.544 4.28482L11.4031 3.29479L11.4002 3.29521L11.544 4.28482ZM11.3216 4.96162L10.6316 5.68542L10.6429 5.6962L10.6545 5.70662L11.3216 4.96162ZM14.3656 7.68722L15.3465 7.88157L15.4573 7.32245L15.0327 6.94223L14.3656 7.68722ZM13.6032 11.5352L12.6223 11.3409L12.6199 11.3531L12.6177 11.3653L13.6032 11.5352ZM14.1896 11.9536L14.6502 12.8413L14.6599 12.8361L14.1896 11.9536ZM17.6 10.136L18.0685 9.25257L17.5988 9.00348L17.1297 9.25353L17.6 10.136ZM21.0288 11.9544L20.5602 12.838L20.572 12.844L21.0288 11.9544ZM21.6144 11.5368L22.6005 11.3708L22.5983 11.3577L22.5958 11.3446L21.6144 11.5368ZM20.8608 7.68882L20.1902 6.947L19.7708 7.32615L19.8794 7.88101L20.8608 7.68882ZM23.8768 4.96242L24.5474 5.70425L24.5572 5.69536L24.5668 5.68622L23.8768 4.96242ZM23.6544 4.28562L23.7955 3.29563L23.7954 3.29561L23.6544 4.28562ZM19.7216 3.72562L18.828 4.17447L19.0628 4.6419L19.5806 4.71564L19.7216 3.72562ZM17.9616 0.221622L18.8552 -0.227223L18.855 -0.22773L17.9616 0.221622ZM17.6 1.29202L18.4937 0.843267L17.5999 -0.936605L16.7063 0.843364L17.6 1.29202ZM19.0904 4.26002L19.9873 3.81765L19.9841 3.81127L19.0904 4.26002ZM19.3944 4.47842L19.5357 3.48846L19.5333 3.48811L19.3944 4.47842ZM22.7288 4.95442L23.3959 5.69936L24.9945 4.26772L22.8701 3.96446L22.7288 4.95442ZM20.1472 7.26642L19.4801 6.52149L19.4724 6.52835L19.4649 6.53537L20.1472 7.26642ZM20.0312 7.61522L19.0462 7.7876L19.0482 7.79915L19.0505 7.81065L20.0312 7.61522ZM20.6816 10.8792L20.2113 11.7617L22.075 12.7549L21.6623 10.6838L20.6816 10.8792ZM17.7888 9.33762L18.2591 8.45505L18.2481 8.44932L17.7888 9.33762ZM17.4128 9.33762L16.956 8.44806L16.948 8.45217L16.94 8.45643L17.4128 9.33762ZM14.5408 10.8784L13.5605 10.6807L13.1402 12.7647L15.0136 11.7596L14.5408 10.8784ZM15.1992 7.61442L16.1795 7.81216L16.182 7.79951L16.1842 7.7868L15.1992 7.61442ZM15.0832 7.26402L15.7748 6.54178L15.7608 6.52838L15.7463 6.51553L15.0832 7.26402ZM12.4736 4.95202L12.3324 3.96204L10.1926 4.26714L11.8105 5.70052L12.4736 4.95202ZM15.8064 4.47682L15.6683 3.48639L15.6652 3.48684L15.8064 4.47682ZM16.1104 4.25922L15.2167 3.81056L15.2148 3.81445L16.1104 4.25922ZM17.6143 -0.999925C17.0857 -1.00537 16.5882 -0.713522 16.3442 -0.22848L18.131 0.670124C18.0246 0.881566 17.8119 1.00222 17.5937 0.999969L17.6143 -0.999925ZM16.3437 -0.227534L14.5861 3.27647L16.3739 4.17318L18.1315 0.669178L16.3437 -0.227534ZM15.3391 2.73479L11.4031 3.29479L11.6849 5.27485L15.6209 4.71485L15.3391 2.73479ZM11.4002 3.29521C10.2727 3.45901 9.76741 4.86157 10.6316 5.68542L12.0116 4.23783C12.3958 4.60408 12.1545 5.20663 11.6878 5.27443L11.4002 3.29521ZM10.6545 5.70662L13.6985 8.43222L15.0327 6.94223L11.9887 4.21663L10.6545 5.70662ZM13.3847 7.49287L12.6223 11.3409L14.5841 11.7296L15.3465 7.88157L13.3847 7.49287ZM12.6177 11.3653C12.4153 12.5392 13.6515 13.3595 14.6502 12.8412L13.729 11.066C14.1357 10.855 14.6791 11.1808 14.5887 11.7051L12.6177 11.3653ZM14.6599 12.8361L18.0703 11.0185L17.1297 9.25353L13.7193 11.0711L14.6599 12.8361ZM17.1315 11.0195L20.5603 12.8379L21.4973 11.071L18.0685 9.25257L17.1315 11.0195ZM20.572 12.844C21.57 13.3565 22.7971 12.5387 22.6005 11.3708L20.6283 11.7028C20.5405 11.1813 21.0796 10.8564 21.4856 11.0649L20.572 12.844ZM22.5958 11.3446L21.8422 7.49663L19.8794 7.88101L20.633 11.729L22.5958 11.3446ZM21.5314 8.43065L24.5474 5.70425L23.2062 4.2206L20.1902 6.947L21.5314 8.43065ZM24.5668 5.68622C25.427 4.86616 24.9321 3.45761 23.7955 3.29563L23.5133 5.27562C23.0391 5.20804 22.8066 4.60108 23.1868 4.23863L24.5668 5.68622ZM23.7954 3.29561L19.8626 2.73561L19.5806 4.71564L23.5134 5.27564L23.7954 3.29561ZM20.6152 3.27678L18.8552 -0.227223L17.068 0.670467L18.828 4.17447L20.6152 3.27678ZM18.855 -0.22773C18.6183 -0.698266 18.1376 -0.994417 17.6145 -0.999923L17.5935 0.999967C17.3744 0.997661 17.1705 0.87431 17.0682 0.670974L18.855 -0.22773ZM16.7063 1.74078L18.1967 4.70878L19.9841 3.81127L18.4937 0.843267L16.7063 1.74078ZM18.1936 4.70238C18.401 5.12285 18.8024 5.40518 19.2555 5.46873L19.5333 3.48811C19.724 3.51486 19.8966 3.63399 19.9872 3.81766L18.1936 4.70238ZM19.2531 5.46839L22.5875 5.94439L22.8701 3.96446L19.5357 3.48846L19.2531 5.46839ZM22.0617 4.20949L19.4801 6.52149L20.8143 8.01136L23.3959 5.69936L22.0617 4.20949ZM19.4649 6.53537C19.1167 6.8603 18.9667 7.33349 19.0462 7.7876L21.0162 7.44284C21.0509 7.64095 20.9857 7.85175 20.8295 7.99748L19.4649 6.53537ZM19.0505 7.81065L19.7009 11.0746L21.6623 10.6838L21.0119 7.4198L19.0505 7.81065ZM21.1519 9.99671L18.2591 8.45511L17.3185 10.2201L20.2113 11.7617L21.1519 9.99671ZM18.2481 8.44932C17.8414 8.23909 17.3602 8.24051 16.956 8.44806L17.8696 10.2272C17.7022 10.3131 17.501 10.3146 17.3295 10.2259L18.2481 8.44932ZM16.94 8.45643L14.068 9.99723L15.0136 11.7596L17.8856 10.2188L16.94 8.45643ZM15.5211 11.0762L16.1795 7.81216L14.2189 7.41669L13.5605 10.6807L15.5211 11.0762ZM16.1842 7.7868C16.265 7.32534 16.1064 6.85929 15.7748 6.54178L14.3916 7.98627C14.2488 7.84955 14.1782 7.6475 14.2142 7.44204L16.1842 7.7868ZM15.7463 6.51553L13.1367 4.20353L11.8105 5.70052L14.4201 8.01252L15.7463 6.51553ZM12.6148 5.94201L15.9476 5.46681L15.6652 3.48684L12.3324 3.96204L12.6148 5.94201ZM15.9445 5.46725C16.3999 5.40376 16.7991 5.12079 17.006 4.704L15.2148 3.81445C15.3049 3.63285 15.4769 3.51308 15.6683 3.4864L15.9445 5.46725ZM17.0041 4.70788L18.4937 1.74068L16.7063 0.843364L15.2167 3.81056L17.0041 4.70788ZM13.2 13.4C11.9901 13.4 11 14.3901 11 15.6H13C13 15.5513 13.0195 15.5016 13.0605 15.4605C13.1015 15.4195 13.1513 15.4 13.2 15.4V13.4ZM11 15.6V22.8H13V15.6H11ZM11 22.8C11 24.0099 11.9901 25 13.2 25V23C13.1513 23 13.1015 22.9806 13.0605 22.9395C13.0195 22.8985 13 22.8488 13 22.8H11ZM13.2 25H20.4V23H13.2V25ZM20.4 25C21.6099 25 22.6 24.0099 22.6 22.8H20.6C20.6 22.8488 20.5805 22.8985 20.5395 22.9395C20.4985 22.9806 20.4487 23 20.4 23V25ZM22.6 22.8V15.6H20.6V22.8H22.6ZM22.6 15.6C22.6 14.3901 21.6099 13.4 20.4 13.4V15.4C20.4487 15.4 20.4985 15.4195 20.5395 15.4605C20.5805 15.5016 20.6 15.5513 20.6 15.6H22.6ZM20.4 13.4H13.2V15.4H20.4V13.4ZM13.2 16.2H20.4V14.2H13.2V16.2ZM20.4 16.2C20.2582 16.2 20.1011 16.1438 19.9787 16.0213C19.8563 15.8989 19.8 15.7418 19.8 15.6H21.8C21.8 14.8189 21.1811 14.2 20.4 14.2V16.2ZM19.8 15.6V22.8H21.8V15.6H19.8ZM19.8 22.8C19.8 22.6582 19.8563 22.5012 19.9787 22.3787C20.1011 22.2563 20.2582 22.2 20.4 22.2V24.2C21.1811 24.2 21.8 23.5811 21.8 22.8H19.8ZM20.4 22.2H13.2V24.2H20.4V22.2ZM13.2 22.2C13.3418 22.2 13.4989 22.2563 13.6213 22.3787C13.7437 22.5012 13.8 22.6582 13.8 22.8H11.8C11.8 23.5811 12.4189 24.2 13.2 24.2V22.2ZM13.8 22.8V15.6H11.8V22.8H13.8ZM13.8 15.6C13.8 15.7418 13.7437 15.8989 13.6213 16.0213C13.4989 16.1438 13.3418 16.2 13.2 16.2V14.2C12.4189 14.2 11.8 14.8189 11.8 15.6H13.8ZM1.2 1.40002C-0.00988483 1.40002 -1 2.39014 -1 3.60002H1C1 3.55129 1.01947 3.50156 1.06051 3.46053C1.10154 3.4195 1.15127 3.40002 1.2 3.40002V1.40002ZM-1 3.60002V10.8H1V3.60002H-1ZM-1 10.8C-1 12.0099 -0.00988483 13 1.2 13V11C1.15127 11 1.10154 10.9805 1.06051 10.9395C1.01947 10.8985 1 10.8488 1 10.8H-1ZM1.2 13H8.4V11H1.2V13ZM8.4 13C9.60989 13 10.6 12.0099 10.6 10.8H8.6C8.6 10.8488 8.58053 10.8985 8.53949 10.9395C8.49846 10.9805 8.44873 11 8.4 11V13ZM10.6 10.8V3.60002H8.6V10.8H10.6ZM10.6 3.60002C10.6 2.39014 9.60989 1.40002 8.4 1.40002V3.40002C8.44873 3.40002 8.49846 3.4195 8.53949 3.46053C8.58053 3.50156 8.6 3.55129 8.6 3.60002H10.6ZM8.4 1.40002H1.2V3.40002H8.4V1.40002ZM1.2 4.20002H8.4V2.20002H1.2V4.20002ZM8.4 4.20002C8.25823 4.20002 8.10113 4.14376 7.97869 4.02133C7.85626 3.89889 7.8 3.7418 7.8 3.60002H9.8C9.8 2.81894 9.18108 2.20002 8.4 2.20002V4.20002ZM7.8 3.60002V10.8H9.8V3.60002H7.8ZM7.8 10.8C7.8 10.6582 7.85626 10.5012 7.97869 10.3787C8.10113 10.2563 8.25823 10.2 8.4 10.2V12.2C9.18108 12.2 9.8 11.5811 9.8 10.8H7.8ZM8.4 10.2H1.2V12.2H8.4V10.2ZM1.2 10.2C1.34177 10.2 1.49887 10.2563 1.62131 10.3787C1.74374 10.5012 1.8 10.6582 1.8 10.8H-0.2C-0.2 11.5811 0.418915 12.2 1.2 12.2V10.2ZM1.8 10.8V3.60002H-0.2V10.8H1.8ZM1.8 3.60002C1.8 3.7418 1.74374 3.89889 1.62131 4.02133C1.49887 4.14376 1.34177 4.20002 1.2 4.20002V2.20002C0.418915 2.20002 -0.2 2.81894 -0.2 3.60002H1.8ZM1.2 13.4C-0.00988483 13.4 -1 14.3901 -1 15.6H1C1 15.5513 1.01947 15.5016 1.06051 15.4605C1.10154 15.4195 1.15127 15.4 1.2 15.4V13.4ZM-1 15.6V22.8H1V15.6H-1ZM-1 22.8C-1 24.0099 -0.00988483 25 1.2 25V23C1.15127 23 1.10154 22.9806 1.06051 22.9395C1.01947 22.8985 1 22.8488 1 22.8H-1ZM1.2 25H8.4V23H1.2V25ZM8.4 25C9.60989 25 10.6 24.0099 10.6 22.8H8.6C8.6 22.8488 8.58053 22.8985 8.53949 22.9395C8.49846 22.9806 8.44873 23 8.4 23V25ZM10.6 22.8V15.6H8.6V22.8H10.6ZM10.6 15.6C10.6 14.3901 9.60989 13.4 8.4 13.4V15.4C8.44873 15.4 8.49846 15.4195 8.53949 15.4605C8.58053 15.5016 8.6 15.5513 8.6 15.6H10.6ZM8.4 13.4H1.2V15.4H8.4V13.4ZM1.2 16.2H8.4V14.2H1.2V16.2ZM8.4 16.2C8.25823 16.2 8.10113 16.1438 7.97869 16.0213C7.85626 15.8989 7.8 15.7418 7.8 15.6H9.8C9.8 14.8189 9.18108 14.2 8.4 14.2V16.2ZM7.8 15.6V22.8H9.8V15.6H7.8ZM7.8 22.8C7.8 22.6582 7.85626 22.5012 7.97869 22.3787C8.10113 22.2563 8.25823 22.2 8.4 22.2V24.2C9.18108 24.2 9.8 23.5811 9.8 22.8H7.8ZM8.4 22.2H1.2V24.2H8.4V22.2ZM1.2 22.2C1.34177 22.2 1.49887 22.2563 1.62131 22.3787C1.74374 22.5012 1.8 22.6582 1.8 22.8H-0.2C-0.2 23.5811 0.418915 24.2 1.2 24.2V22.2ZM1.8 22.8V15.6H-0.2V22.8H1.8ZM1.8 15.6C1.8 15.7418 1.74374 15.8989 1.62131 16.0213C1.49887 16.1438 1.34177 16.2 1.2 16.2V14.2C0.418915 14.2 -0.2 14.8189 -0.2 15.6H1.8Z" fill="#126A3A" mask="url(#path-1-inside-1_692_6961)"/>
</svg>
