<svg width="24" height="24" viewBox="0 0 24 24" fill="none" xmlns="http://www.w3.org/2000/svg">
<g clip-path="url(#clip0_692_6976)">
<path d="M23.4891 21.9731C21.0391 22.4941 18.9961 19.9531 18.9961 19.9531C18.6205 20.5471 18.1051 21.04 17.495 21.3887C16.8848 21.7373 16.1985 21.9311 15.4961 21.9531C14.7897 21.9503 14.096 21.7646 13.4827 21.4141C12.8693 21.0637 12.3572 20.5603 11.9961 19.9531C11.6348 20.5601 11.1226 21.0633 10.5093 21.4138C9.89601 21.7642 9.20246 21.95 8.49609 21.9531C7.79368 21.9311 7.10737 21.7373 6.49721 21.3887C5.88705 21.04 5.37164 20.5471 4.99609 19.9531C4.99609 19.9531 2.94709 22.4741 0.496094 21.9531" stroke="#126A3A" stroke-linecap="round" stroke-linejoin="round"/>
<path d="M6.97381 15.6631C6.16909 15.289 5.48551 14.6965 5.00081 13.9531C5.00081 13.9531 2.95781 16.4991 0.507812 15.9731" stroke="#031009" stroke-linecap="round" stroke-linejoin="round"/>
<path d="M23.4998 15.9321C20.9998 16.4531 19.4408 13.9531 19.4408 13.9531C19.0665 14.5462 18.5564 15.0417 17.9526 15.3985C17.3489 15.7554 16.6688 15.9633 15.9688 16.0051" stroke="#031009" stroke-linecap="round" stroke-linejoin="round"/>
<path d="M11.4961 1.95703V13.954" stroke="#031009" stroke-linecap="round" stroke-linejoin="round"/>
<path d="M11.4961 3.95703H16.4951" stroke="#031009" stroke-linecap="round" stroke-linejoin="round"/>
<path d="M11.4961 6.95703H16.4951" stroke="#031009" stroke-linecap="round" stroke-linejoin="round"/>
<path d="M11.4961 9.95508H16.4951" stroke="#031009" stroke-linecap="round" stroke-linejoin="round"/>
<path d="M11.4961 17.9531C12.6007 17.9531 13.4961 17.0577 13.4961 15.9531C13.4961 14.8486 12.6007 13.9531 11.4961 13.9531C10.3915 13.9531 9.49609 14.8486 9.49609 15.9531C9.49609 17.0577 10.3915 17.9531 11.4961 17.9531Z" stroke="#031009" stroke-linecap="round" stroke-linejoin="round"/>
</g>
<defs>
<clipPath id="clip0_692_6976">
<rect width="24" height="24" fill="white"/>
</clipPath>
</defs>
</svg>
