<svg width="24" height="24" viewBox="0 0 24 24" fill="none" xmlns="http://www.w3.org/2000/svg">
<path d="M12 15.5C13.933 15.5 15.5 13.933 15.5 12C15.5 10.067 13.933 8.5 12 8.5C10.067 8.5 8.5 10.067 8.5 12C8.5 13.933 10.067 15.5 12 15.5Z" stroke="#126A3A" stroke-linecap="round" stroke-linejoin="round"/>
<path d="M23.3766 11.672C22.2136 10.352 17.5626 5.5 12.0006 5.5C6.43857 5.5 1.78757 10.352 0.624573 11.672C0.545499 11.763 0.501953 11.8795 0.501953 12C0.501953 12.1205 0.545499 12.237 0.624573 12.328C1.78757 13.648 6.43857 18.5 12.0006 18.5C17.5626 18.5 22.2136 13.648 23.3766 12.328C23.4556 12.237 23.4992 12.1205 23.4992 12C23.4992 11.8795 23.4556 11.763 23.3766 11.672V11.672Z" stroke="#031009" stroke-linecap="round" stroke-linejoin="round"/>
</svg>
