<svg width="24" height="24" viewBox="0 0 24 24" fill="none" xmlns="http://www.w3.org/2000/svg">
<g clip-path="url(#clip0_692_7051)">
<path d="M21.5 16.1348V18.6348C21.5 19.563 21.1313 20.4533 20.4749 21.1096C19.8185 21.766 18.9283 22.1348 18 22.1348H2.5C1.96957 22.1348 1.46086 21.9241 1.08579 21.549C0.710714 21.1739 0.5 20.6652 0.5 20.1348V7.13477C0.5 6.60433 0.710714 6.09562 1.08579 5.72055C1.46086 5.34548 1.96957 5.13477 2.5 5.13477H18C18.9283 5.13477 19.8185 5.50351 20.4749 6.15989C21.1313 6.81627 21.5 7.70651 21.5 8.63477V11.1348" stroke="#031009" stroke-linecap="round" stroke-linejoin="round"/>
<path d="M18.5 13.3848C18.5494 13.3848 18.5978 13.3994 18.6389 13.4269C18.68 13.4544 18.7121 13.4934 18.731 13.5391C18.7499 13.5848 18.7548 13.635 18.7452 13.6835C18.7356 13.732 18.7117 13.7766 18.6768 13.8115C18.6418 13.8465 18.5973 13.8703 18.5488 13.88C18.5003 13.8896 18.45 13.8847 18.4043 13.8657C18.3586 13.8468 18.3196 13.8148 18.2921 13.7737C18.2647 13.7325 18.25 13.6842 18.25 13.6348C18.2499 13.6019 18.2562 13.5693 18.2688 13.5389C18.2813 13.5085 18.2997 13.4809 18.3229 13.4577C18.3462 13.4345 18.3738 13.416 18.4042 13.4035C18.4346 13.391 18.4671 13.3846 18.5 13.3848" stroke="#031009" stroke-linecap="round" stroke-linejoin="round"/>
<path d="M18.384 5.15459L17.751 2.62259C17.7188 2.49374 17.6612 2.3726 17.5816 2.26624C17.5021 2.15989 17.4021 2.07044 17.2876 2.00314C17.1731 1.93583 17.0464 1.89201 16.9147 1.87423C16.7831 1.85645 16.6493 1.86508 16.521 1.89959L4.5 5.13459" stroke="#031009" stroke-linecap="round" stroke-linejoin="round"/>
<path d="M3.50391 8.13477H5.50391" stroke="#031009" stroke-linecap="round" stroke-linejoin="round"/>
<path d="M7.50391 8.13477H9.50391" stroke="#031009" stroke-linecap="round" stroke-linejoin="round"/>
<path d="M11.5039 8.13477H13.5039" stroke="#031009" stroke-linecap="round" stroke-linejoin="round"/>
<path d="M15.5039 8.13477H17.5039" stroke="#031009" stroke-linecap="round" stroke-linejoin="round"/>
<path d="M3.50391 19.1348H5.50391" stroke="#031009" stroke-linecap="round" stroke-linejoin="round"/>
<path d="M7.50391 19.1348H9.50391" stroke="#031009" stroke-linecap="round" stroke-linejoin="round"/>
<path d="M11.5039 19.1348H13.5039" stroke="#031009" stroke-linecap="round" stroke-linejoin="round"/>
<path d="M15.5039 19.1348H17.5039" stroke="#031009" stroke-linecap="round" stroke-linejoin="round"/>
<path d="M21.5039 11.1348H17.5039C16.3993 11.1348 15.5039 12.0302 15.5039 13.1348V14.1348C15.5039 15.2393 16.3993 16.1348 17.5039 16.1348H21.5039C22.6085 16.1348 23.5039 15.2393 23.5039 14.1348V13.1348C23.5039 12.0302 22.6085 11.1348 21.5039 11.1348Z" stroke="#031009" stroke-linecap="round" stroke-linejoin="round"/>
</g>
<defs>
<clipPath id="clip0_692_7051">
<rect width="24" height="24" fill="white"/>
</clipPath>
</defs>
</svg>
