<svg width="24" height="24" viewBox="0 0 24 24" fill="none" xmlns="http://www.w3.org/2000/svg">
<g clip-path="url(#clip0_692_7067)">
<path d="M18.1999 10.7924L19.7389 14.3624H22.7389C22.8901 14.3567 23.0394 14.3978 23.1664 14.48C23.2934 14.5623 23.3919 14.6818 23.4484 14.8221C23.505 14.9625 23.5168 15.1169 23.4824 15.2642C23.4479 15.4115 23.3688 15.5447 23.2559 15.6454L20.6559 17.9614L22.0959 21.2744C22.1591 21.4259 22.1732 21.5934 22.1362 21.7534C22.0992 21.9134 22.013 22.0577 21.8897 22.1661C21.7664 22.2745 21.6122 22.3415 21.4488 22.3577C21.2854 22.3739 21.1211 22.3385 20.9789 22.2564L17.4999 20.2994L14.0199 22.2564C13.8777 22.3385 13.7134 22.3739 13.55 22.3577C13.3866 22.3415 13.2324 22.2745 13.1091 22.1661C12.9858 22.0577 12.8996 21.9134 12.8626 21.7534C12.8256 21.5934 12.8397 21.4259 12.9029 21.2744L14.3429 17.9614L11.7429 15.6464C11.6298 15.5459 11.5505 15.413 11.5158 15.2658C11.481 15.1186 11.4925 14.9642 11.5487 14.8238C11.605 14.6833 11.7031 14.5637 11.8299 14.4811C11.9566 14.3985 12.1057 14.3571 12.2569 14.3624H15.2569L16.7969 10.7924C16.8659 10.6666 16.9674 10.5617 17.0908 10.4886C17.2142 10.4155 17.355 10.377 17.4984 10.377C17.6418 10.377 17.7826 10.4155 17.906 10.4886C18.0295 10.5617 18.131 10.6666 18.1999 10.7924V10.7924Z" stroke="#126A3A" stroke-linecap="round" stroke-linejoin="round"/>
<path d="M10.5438 19.864L2.20076 11.272C1.34127 10.4289 0.772576 9.33411 0.577133 8.14616C0.381689 6.95822 0.569648 5.7389 1.11376 4.66496V4.66496C1.53297 3.85121 2.13764 3.14742 2.87894 2.61039C3.62025 2.07337 4.47743 1.71816 5.38131 1.57344C6.28518 1.42871 7.21041 1.49853 8.08233 1.77725C8.95425 2.05596 9.74843 2.53578 10.4008 3.17796L12.0008 4.63696L13.6008 3.17796C14.2532 2.53598 15.0474 2.05635 15.9193 1.77775C16.7911 1.49916 17.7163 1.4294 18.6201 1.57412C19.5239 1.71883 20.381 2.07396 21.1224 2.61085C21.8637 3.14774 22.4684 3.85137 22.8878 4.66496V4.66496C23.4316 5.73897 23.6194 6.95821 23.4239 8.14608C23.2285 9.33395 22.66 10.4288 21.8008 11.272" stroke="black" stroke-linecap="round" stroke-linejoin="round"/>
</g>
<defs>
<clipPath id="clip0_692_7067">
<rect width="24" height="24" fill="white"/>
</clipPath>
</defs>
</svg>
